<?xml version="1.0" encoding="utf-8"?>
<!-- Generator: Adobe Illustrator 18.0.0, SVG Export Plug-In . SVG Version: 6.00 Build 0)  -->
<!DOCTYPE svg PUBLIC "-//W3C//DTD SVG 1.1//EN" "http://www.w3.org/Graphics/SVG/1.1/DTD/svg11.dtd">
<svg version="1.1" id="Layer_1" xmlns="http://www.w3.org/2000/svg" xmlns:xlink="http://www.w3.org/1999/xlink" x="0px" y="0px"
	 viewBox="0 0 143.1 114.4" enable-background="new 0 0 143.1 114.4" xml:space="preserve">
<g>
	<polygon fill="#FFFFFF" points="42.1,62.6 0.2,13.7 42.1,62.6 14.5,90.2 	"/>
	<path fill="#FFFFFF" d="M132.3,113.8c0.1,0,0.1,0,0.2,0l-5.8-5.7l-25.6-25.4l-9.3-9.3L79.7,87.6L71.6,97L51.5,73.4l-7.9,7.9
		l-32.7,32.5c0.1,0,0.1,0,0.2,0l-0.2,0.2l0.2-0.2c1.1,0.3,2.3,0.2,3.5,0.2h114.3C130,114,131.2,114.1,132.3,113.8l0.2,0.2
		c0,0,0,0,0,0L132.3,113.8z"/>
	<polygon fill="#FFFFFF" points="71.6,75 134.6,1.5 71.6,75 29.7,26 	"/>
	<path fill="#FFFFFF" d="M14.5,90.2l27.7-27.6l-42-48.9C0.1,14,0,14.3,0,14.6v85.7c0,1.3,0.3,2.5,0.6,3.7l0.1-0.1c0,0,0,0,0,0.1l0,0
		c0,0,0,0,0-0.1L14.5,90.2z"/>
	<path fill="#FFFFFF" d="M29.7,26l42,49l63-73.5c-1.8-0.8-3.8-1.4-5.8-1.4H14.5c-2,0-4,0.6-5.8,1.4l0,0c0,0,0,0,0,0l0,0c0,0,0,0,0,0
		L29.7,26z"/>
	<path fill="#FFFFFF" d="M143,13.7l-41.9,48.9l41.4,41.4c0.3-1.2,0.5-2.4,0.5-3.7l0-85.7C143.1,14.3,143.1,14,143,13.7z"/>
	<polygon fill="#FFFFFF" points="0.7,104 0.7,104 14.5,90.2 	"/>
	<path fill="#FFFFFF" d="M29.7,26L8.7,1.5c0,0,0,0,0,0L29.7,26z"/>
	<path fill="#FFFFFF" d="M132.5,114L132.5,114c-1.2,0.3-2.4,0.4-3.7,0.4C130.1,114.4,131.3,114.3,132.5,114z"/>
</g>
</svg>
