<?xml version="1.0" encoding="utf-8"?>
<!-- Generator: Adobe Illustrator 18.0.0, SVG Export Plug-In . SVG Version: 6.00 Build 0)  -->
<!DOCTYPE svg PUBLIC "-//W3C//DTD SVG 1.1//EN" "http://www.w3.org/Graphics/SVG/1.1/DTD/svg11.dtd">
<svg version="1.1" id="Layer_1" xmlns="http://www.w3.org/2000/svg" xmlns:xlink="http://www.w3.org/1999/xlink" x="0px" y="0px"
	 viewBox="0 0 165.4 183.8" enable-background="new 0 0 165.4 183.8" xml:space="preserve">
<path fill="#FFFFFF" d="M36.8,183.8H0V55.1h36.8V183.8z M18.4,36.8C8.2,36.8,0,28.5,0,18.4S8.2,0,18.4,0s18.4,8.2,18.4,18.4
	S28.5,36.8,18.4,36.8z M165.4,183.8h-36.8v-73.5c0-10.1-8.2-18.4-18.4-18.4s-18.4,8.2-18.4,18.4v73.5H55.1V55.1h36.8v22.8
	C99.5,67.5,111,55.1,124,55.1c22.8,0,41.3,20.6,41.3,45.9L165.4,183.8L165.4,183.8z"/>
</svg>
