<?xml version="1.0" encoding="utf-8"?>
<!-- Generator: Adobe Illustrator 18.0.0, SVG Export Plug-In . SVG Version: 6.00 Build 0)  -->
<!DOCTYPE svg PUBLIC "-//W3C//DTD SVG 1.1//EN" "http://www.w3.org/Graphics/SVG/1.1/DTD/svg11.dtd">
<svg version="1.1" id="instagram" xmlns="http://www.w3.org/2000/svg" xmlns:xlink="http://www.w3.org/1999/xlink" x="0px" y="0px"
	 viewBox="323.9 195.8 376.1 376.3" enable-background="new 323.9 195.8 376.1 376.3" xml:space="preserve">
<path fill="#0A0A0A" d="M658.7,195.8H365.3c-22.8,0-41.4,18.5-41.4,41.4v293.5c0,22.9,18.5,41.4,41.4,41.4h293.4
	c22.8,0,41.4-18.5,41.4-41.4V237.2C700.1,214.4,681.5,195.8,658.7,195.8z M511.8,311.7c39.8,0,72,32.3,72,72c0,39.8-32.2,72-72,72
	s-72-32.3-72-72S472,311.7,511.8,311.7z M656,513.1c0,8.3-6.7,15-15,15H382.7c-8.3,0-15-6.7-15-15V355.4h32.7
	c-2.3,9-3.5,18.5-3.5,28.2c0,63.8,51.7,115.5,115.4,115.5s115.4-51.7,115.4-115.5c0-9.7-1.2-19.2-3.5-28.2H656V513.1L656,513.1z
	 M657,296.2c0,8.3-6.7,15-15,15h-42.7c-8.3,0-15-6.7-15-15v-42.7c0-8.3,6.7-15,15-15H642c8.3,0,15,6.7,15,15V296.2z"/>
</svg>
