<?xml version="1.0" encoding="utf-8"?>
<!-- Generator: Adobe Illustrator 18.0.0, SVG Export Plug-In . SVG Version: 6.00 Build 0)  -->
<!DOCTYPE svg PUBLIC "-//W3C//DTD SVG 1.1//EN" "http://www.w3.org/Graphics/SVG/1.1/DTD/svg11.dtd">
<svg version="1.1" id="Layer_1" xmlns="http://www.w3.org/2000/svg" xmlns:xlink="http://www.w3.org/1999/xlink" x="0px" y="0px"
	 viewBox="0 0 294 245.5" enable-background="new 0 0 294 245.5" xml:space="preserve">
<path fill="#FFFFFF" d="M294,28.5c-10.8,4.8-22.4,8.1-34.6,9.6c12.5-7.5,22-19.4,26.5-33.6c-11.7,7-24.6,12-38.3,14.7
	C236.6,7.4,220.9,0,203.6,0c-33.3,0-60.3,27.2-60.3,60.7c0,4.8,0.5,9.4,1.6,13.8C94.7,72,50.2,47.8,20.5,11.1
	c-5.2,9-8.2,19.4-8.2,30.5c0,21.1,10.6,39.6,26.8,50.5c-9.9-0.3-19.2-3-27.3-7.6c0,0.3,0,0.5,0,0.8c0,29.4,20.8,53.9,48.4,59.5
	c-5.1,1.4-10.4,2.1-15.9,2.1c-3.9,0-7.7-0.4-11.3-1.1c7.7,24.1,30,41.6,56.3,42.1c-20.6,16.3-46.7,26-74.9,26
	c-4.9,0-9.7-0.3-14.4-0.8c26.7,17.2,58.4,27.3,92.5,27.3c110.9,0,171.6-92.5,171.6-172.6c0-2.6-0.1-5.2-0.2-7.9
	C275.7,51.3,285.9,40.6,294,28.5z"/>
</svg>
