<?xml version="1.0" encoding="utf-8"?>
<!-- Generator: Adobe Illustrator 18.0.0, SVG Export Plug-In . SVG Version: 6.00 Build 0)  -->
<!DOCTYPE svg PUBLIC "-//W3C//DTD SVG 1.1//EN" "http://www.w3.org/Graphics/SVG/1.1/DTD/svg11.dtd">
<svg version="1.1" id="wordpress" xmlns="http://www.w3.org/2000/svg" xmlns:xlink="http://www.w3.org/1999/xlink" x="0px" y="0px"
	 viewBox="323.8 195.8 376.3 376.3" enable-background="new 323.8 195.8 376.3 376.3" xml:space="preserve">
<path fill="#0A0A0A" d="M370.9,384c0,54.4,32.5,101.4,79.5,123.7l-67.3-179.6C375.3,345.2,370.9,364.1,370.9,384L370.9,384z
	 M607.3,377.1c0-17-6.3-28.8-11.6-37.9c-7.2-11.3-13.9-20.9-13.9-32.2c0-12.6,9.8-24.4,23.7-24.4c0.6,0,1.2,0.1,1.8,0.1
	c-25.1-22.4-58.6-36.1-95.3-36.1c-49.3,0-92.7,24.6-117.9,62c3.3,0.1,6.4,0.2,9.1,0.2c14.8,0,37.6-1.7,37.6-1.7
	c7.6-0.4,8.5,10.4,0.9,11.3c0,0-7.6,0.9-16.2,1.3l51.4,148.9l30.9-90.2l-22-58.7c-7.6-0.4-14.8-1.3-14.8-1.3
	c-7.6-0.4-6.7-11.8,0.9-11.3c0,0,23.3,1.7,37.2,1.7c14.8,0,37.6-1.7,37.6-1.7c7.6-0.4,8.5,10.4,0.9,11.3c0,0-7.7,0.9-16.2,1.3
	l51,147.7l14.1-45.8C602.6,402.5,607.3,388.8,607.3,377.1L607.3,377.1z M514.5,396l-42.3,119.8c12.6,3.6,26,5.6,39.9,5.6
	c16.4,0,32.2-2.8,46.9-7.8c-0.4-0.6-0.7-1.2-1-1.9L514.5,396L514.5,396z M635.8,318.1c0.6,4.4,1,9.1,1,14.1
	c0,13.9-2.7,29.6-10.7,49.2l-43.1,121.4c42-23.8,70.2-68.1,70.2-118.8C653.1,360.1,646.8,337.6,635.8,318.1L635.8,318.1z M512,195.8
	c-103.9,0-188.2,84.2-188.2,188.2S408.1,572.2,512,572.2S700.2,487.9,700.2,384S615.9,195.8,512,195.8z M512,548.6
	c-90.9,0-164.6-73.7-164.6-164.6S421.1,219.4,512,219.4S676.6,293.1,676.6,384S602.9,548.6,512,548.6z"/>
</svg>
