<?xml version="1.0" encoding="utf-8"?>
<!-- Generator: Adobe Illustrator 18.0.0, SVG Export Plug-In . SVG Version: 6.00 Build 0)  -->
<!DOCTYPE svg PUBLIC "-//W3C//DTD SVG 1.1//EN" "http://www.w3.org/Graphics/SVG/1.1/DTD/svg11.dtd">
<svg version="1.1" id="Layer_1" xmlns="http://www.w3.org/2000/svg" xmlns:xlink="http://www.w3.org/1999/xlink" x="0px" y="0px"
	 viewBox="0 0 195 391.1" enable-background="new 0 0 195 391.1" xml:space="preserve">
<g>
	<polygon fill="#999999" points="62.9,152.7 175.6,381 185.6,377.1 105.7,135.8 	"/>
	<path fill="#999999" d="M66.7,145.8c0,0-56.9-33.3-48-89.9c0,0,5.7,4,8.9,4.3c10.1,0.9,17-15.3,7.2-29.1S6.7,7.7,6.7,7.7
		s51.1-6.3,78.5,39.6c0,0,20.5,39.8,13.7,85.8L66.7,145.8z"/>
	<polygon fill="#999999" points="176.9,383.8 186.5,380 187.9,389.2 183,391.1 	"/>
</g>
<g>
	<path fill="#808080" d="M-451,315.7h-154.4c-5.4,0-9.8-4.4-9.8-9.8V54.9c0-5.4,4.4-9.8,9.8-9.8H-451c5.4,0,9.8,4.4,9.8,9.8v250.9
		C-441.2,311.3-445.6,315.7-451,315.7z"/>
	<rect x="-593.8" y="70.9" fill="#E6E6E6" width="126.7" height="11.9"/>
	<rect x="-593.8" y="92.5" fill="#E6E6E6" width="126.7" height="11.9"/>
	<rect x="-593.8" y="156.7" fill="#E6E6E6" width="126.7" height="11.9"/>
	<rect x="-593.8" y="181.8" fill="#E6E6E6" width="126.7" height="11.9"/>
	<rect x="-593.8" y="272.7" fill="#E6E6E6" width="126.7" height="11.9"/>
	<circle fill="none" stroke="#E6E6E6" stroke-width="8" stroke-miterlimit="10" cx="-592.2" cy="232.8" r="33.8"/>
	<rect x="-593.8" y="131.7" fill="#E6E6E6" width="126.7" height="11.9"/>
	<g>
		<path fill="#E6E6E6" d="M-425.9,305.6l-15.5,10.3c-0.2,0.2-0.5,0.1-0.7-0.1l-61-91.6c-0.2-0.2-0.1-0.5,0.1-0.7l15.5-10.3
			c0.2-0.2,0.5-0.1,0.7,0.1l61,91.6C-425.6,305.1-425.7,305.4-425.9,305.6z"/>
		<path fill="#E6E6E6" d="M-504.8,222.2l-1.6-18.9c0-0.4,0.4-0.7,0.7-0.5l17,8.5c0.3,0.2,0.4,0.6,0.1,0.8l-15.4,10.4
			C-504.3,222.7-504.7,222.5-504.8,222.2z"/>
		<polygon fill="#4D4D4D" points="-505.9,208.9 -506.4,202.4 -500.5,205.3 		"/>
		<path fill="#E6E6E6" d="M-422.5,310.4l-15.4,10.4c-0.4,0.3-0.9,0.2-1.1-0.2l-1.8-2.7c-0.3-0.4-0.2-0.9,0.2-1.1l15.4-10.4
			c0.4-0.3,0.9-0.2,1.1,0.2l1.8,2.7C-422,309.7-422.1,310.2-422.5,310.4z"/>
	</g>
	
		<rect x="-623.6" y="263.9" transform="matrix(0.9054 0.4245 -0.4245 0.9054 65.3844 290.2288)" fill="#E6E6E6" width="9.8" height="55.8"/>
</g>
<text transform="matrix(1 0 0 1 -894.2448 564.96)" fill="#999999" font-family="'MyriadPro-Regular'" font-size="194">&lt;/&gt;</text>
</svg>
