<?xml version="1.0" encoding="utf-8"?>
<!-- Generator: Adobe Illustrator 18.0.0, SVG Export Plug-In . SVG Version: 6.00 Build 0)  -->
<!DOCTYPE svg PUBLIC "-//W3C//DTD SVG 1.1//EN" "http://www.w3.org/Graphics/SVG/1.1/DTD/svg11.dtd">
<svg version="1.1" id="Layer_1" xmlns="http://www.w3.org/2000/svg" xmlns:xlink="http://www.w3.org/1999/xlink" x="0px" y="0px"
	 viewBox="0 0 212.8 116.3" enable-background="new 0 0 212.8 116.3" xml:space="preserve">
<g>
	<polygon fill="#999999" points="-198.1,-60.8 -85.4,167.5 -75.4,163.6 -155.3,-77.7 	"/>
	<path fill="#999999" d="M-194.3-67.7c0,0-56.9-33.3-48-89.9c0,0,5.7,4,8.9,4.3c10.1,0.9,17-15.3,7.2-29.1
		c-9.8-13.8-28-23.5-28-23.5s51.1-6.3,78.5,39.6c0,0,20.5,39.8,13.7,85.8L-194.3-67.7z"/>
	<polygon fill="#999999" points="-84.1,170.2 -74.5,166.4 -73.1,175.7 -78,177.6 	"/>
</g>
<g>
	<path fill="#808080" d="M-294,172.1h-154.4c-5.4,0-9.8-4.4-9.8-9.8V-88.6c0-5.4,4.4-9.8,9.8-9.8H-294c5.4,0,9.8,4.4,9.8,9.8v250.9
		C-284.2,167.8-288.6,172.1-294,172.1z"/>
	<rect x="-436.8" y="-72.6" fill="#E6E6E6" width="126.7" height="11.9"/>
	<rect x="-436.8" y="-51" fill="#E6E6E6" width="126.7" height="11.9"/>
	<rect x="-436.8" y="13.2" fill="#E6E6E6" width="126.7" height="11.9"/>
	<rect x="-436.8" y="38.3" fill="#E6E6E6" width="126.7" height="11.9"/>
	<rect x="-436.8" y="129.2" fill="#E6E6E6" width="126.7" height="11.9"/>
	<circle fill="none" stroke="#E6E6E6" stroke-width="8" stroke-miterlimit="10" cx="-435.2" cy="89.2" r="33.8"/>
	<rect x="-436.8" y="-11.9" fill="#E6E6E6" width="126.7" height="11.9"/>
	<g>
		<path fill="#E6E6E6" d="M-268.9,162.1l-15.5,10.3c-0.2,0.2-0.5,0.1-0.7-0.1l-61-91.6c-0.2-0.2-0.1-0.5,0.1-0.7l15.5-10.3
			c0.2-0.2,0.5-0.1,0.7,0.1l61,91.6C-268.6,161.6-268.7,161.9-268.9,162.1z"/>
		<path fill="#E6E6E6" d="M-347.8,78.6l-1.6-18.9c0-0.4,0.4-0.7,0.7-0.5l17,8.5c0.3,0.2,0.4,0.6,0.1,0.8L-347,79
			C-347.3,79.2-347.7,79-347.8,78.6z"/>
		<polygon fill="#4D4D4D" points="-348.9,65.4 -349.4,58.8 -343.5,61.8 		"/>
		<path fill="#E6E6E6" d="M-265.5,166.9l-15.4,10.4c-0.4,0.3-0.9,0.2-1.1-0.2l-1.8-2.7c-0.3-0.4-0.2-0.9,0.2-1.1l15.4-10.4
			c0.4-0.3,0.9-0.2,1.1,0.2l1.8,2.7C-265,166.1-265.1,166.7-265.5,166.9z"/>
	</g>
	
		<rect x="-466.6" y="120.4" transform="matrix(0.9054 0.4245 -0.4245 0.9054 19.3027 210.0132)" fill="#E6E6E6" width="9.8" height="55.8"/>
</g>
<text transform="matrix(0.9844 0 0 1 -9.1533 108.7035)" fill="#999999" font-family="'MyriadPro-Regular'" font-size="153.1697">&lt;/&gt;</text>
</svg>
