<?xml version="1.0" encoding="utf-8"?>
<!-- Generator: Adobe Illustrator 18.0.0, SVG Export Plug-In . SVG Version: 6.00 Build 0)  -->
<!DOCTYPE svg PUBLIC "-//W3C//DTD SVG 1.1//EN" "http://www.w3.org/Graphics/SVG/1.1/DTD/svg11.dtd">
<svg version="1.1" id="Layer_1" xmlns="http://www.w3.org/2000/svg" xmlns:xlink="http://www.w3.org/1999/xlink" x="0px" y="0px"
	 viewBox="0 0 100 100" enable-background="new 0 0 100 100" xml:space="preserve">
<path d="M86.2,41.3"/>
<path d="M68,46v28.5C68,84.6,59.4,94,49.3,94H20.8C10.7,94,2,84.6,2,74.5V46H68z"/>
<path d="M68,57.2c0,0,16.4-1.6,19.8-6.5C91.2,45.7,99,37.5,99,37.5s-0.2-1.9-2.8-0.5S84.9,48,83.9,49.4S79,54.8,68,53.5V57.2z"/>
<path d="M16.2,36.5h-0.6c-0.3,0-0.6-0.3-0.6-0.6V19.3c0-0.3,0.3-0.6,0.6-0.6h0.6c0.3,0,0.6,0.3,0.6,0.6v16.6
	C16.7,36.2,16.5,36.5,16.2,36.5z"/>
<path d="M43,36.5h-0.5c-0.3,0-0.5-0.2-0.5-0.5V19.2c0-0.3,0.2-0.5,0.5-0.5H43c0.3,0,0.5,0.2,0.5,0.5V36C43.5,36.3,43.3,36.5,43,36.5
	z"/>
<path d="M55.9,36.5h0.5c0.2,0,0.4-0.2,0.4-0.4V17.6c0-0.2-0.2-0.4-0.4-0.4h-0.5c-0.2,0-0.4,0.2-0.4,0.4v18.4
	C55.5,36.3,55.7,36.5,55.9,36.5z"/>
<path d="M29.6,36.5H29c-0.3,0-0.6-0.3-0.6-0.6V12.4c0-0.3,0.3-0.6,0.6-0.6h0.6c0.3,0,0.6,0.3,0.6,0.6v23.5
	C30.2,36.2,29.9,36.5,29.6,36.5z"/>
</svg>
