<?xml version="1.0" encoding="utf-8"?>
<!-- Generator: Adobe Illustrator 18.0.0, SVG Export Plug-In . SVG Version: 6.00 Build 0)  -->
<!DOCTYPE svg PUBLIC "-//W3C//DTD SVG 1.1//EN" "http://www.w3.org/Graphics/SVG/1.1/DTD/svg11.dtd">
<svg version="1.1" id="Layer_1" xmlns="http://www.w3.org/2000/svg" xmlns:xlink="http://www.w3.org/1999/xlink" x="0px" y="0px"
	 viewBox="0 0 432.6 438.4" enable-background="new 0 0 432.6 438.4" xml:space="preserve">
<g>
	<rect x="-78" y="205.5" transform="matrix(0.702 -0.7122 0.7122 0.702 -91.6337 219.3795)" width="588.6" height="27.3"/>
	
		<ellipse transform="matrix(0.702 -0.7122 0.7122 0.702 -259.6665 152.5775)" fill="#FFFFFF" cx="52.5" cy="386.6" rx="6.8" ry="5.5"/>
	
		<ellipse transform="matrix(0.702 -0.7122 0.7122 0.702 -106.0163 213.7031)" fill="#FFFFFF" cx="202.3" cy="233.5" rx="7" ry="5.8"/>
	
		<ellipse transform="matrix(0.702 -0.7122 0.7122 0.702 -75.2105 226.0745)" fill="#FFFFFF" cx="232.5" cy="202.9" rx="7" ry="5.8"/>
	<ellipse transform="matrix(0.702 -0.7122 0.7122 0.702 -49.4196 236.432)" fill="#FFFFFF" cx="257.8" cy="177.3" rx="7" ry="5.8"/>
	<ellipse transform="matrix(0.702 -0.7122 0.7122 0.702 8.61 259.7362)" fill="#FFFFFF" cx="314.7" cy="119.6" rx="7" ry="5.8"/>
	<ellipse transform="matrix(0.702 -0.7122 0.7122 0.702 35.8337 270.6691)" fill="#FFFFFF" cx="341.3" cy="92.5" rx="7" ry="5.8"/>
	<ellipse transform="matrix(0.702 -0.7122 0.7122 0.702 64.4903 282.1774)" fill="#FFFFFF" cx="369.4" cy="64" rx="7" ry="5.8"/>
	
		<rect x="22.3" y="399.4" transform="matrix(0.702 -0.7122 0.7122 0.702 -286.7726 141.013)" fill="#FFFFFF" width="5.6" height="27.5"/>
	
		<rect x="172.7" y="247" transform="matrix(0.702 -0.7122 0.7122 0.702 -133.7203 202.8327)" fill="#FFFFFF" width="5.6" height="28.4"/>
	
		<rect x="409.3" y="6.9" transform="matrix(0.702 -0.7122 0.7122 0.702 108.0122 299.6555)" fill="#FFFFFF" width="5.6" height="27.8"/>
</g>
</svg>
