<?xml version="1.0" encoding="utf-8"?>
<!-- Generator: Adobe Illustrator 18.0.0, SVG Export Plug-In . SVG Version: 6.00 Build 0)  -->
<!DOCTYPE svg PUBLIC "-//W3C//DTD SVG 1.1//EN" "http://www.w3.org/Graphics/SVG/1.1/DTD/svg11.dtd">
<svg version="1.1" id="Layer_1" xmlns="http://www.w3.org/2000/svg" xmlns:xlink="http://www.w3.org/1999/xlink" x="0px" y="0px"
	 viewBox="0 0 171.2 126.1" enable-background="new 0 0 171.2 126.1" xml:space="preserve">
<path d="M-0.1,72.4l21.7-20.9l12.9-12.1l9-5.2L62.9,14c2.1-2.2,5.4-2.6,8-1.1l12.4,7.5c1.5,0.9,2.7,2.2,3.6,3.7l24.4,43.5l9.8-24.7
	l6.3-16.8l1.8-4.4c2.5-6,10.6-7.2,14.7-2.1L158,36.7c1.6,2,3.9,3.4,6.4,3.9l6.5,1.5V92v29.6v4.4h-30c0,0-6.1-1.6-3.8-10.6
	c2.3-9,0.8-15.7-5.5-21.5c-6.3-5.9-16.1-6.7-16.8-15.3c-0.8-8.6-3.5-11-3.5-11s-1.6,0.4,0.4,7.8c2,7.4,2,7.4,5.5,11.7
	c3.5,4.3,16.1,6.7,16.8,16.8s-6.9,22-6.9,22l-127.2,0.1V72.4z"/>
</svg>
