<?xml version="1.0" encoding="utf-8"?>
<!-- Generator: Adobe Illustrator 18.0.0, SVG Export Plug-In . SVG Version: 6.00 Build 0)  -->
<!DOCTYPE svg PUBLIC "-//W3C//DTD SVG 1.1//EN" "http://www.w3.org/Graphics/SVG/1.1/DTD/svg11.dtd">
<svg version="1.1" id="Layer_1" xmlns="http://www.w3.org/2000/svg" xmlns:xlink="http://www.w3.org/1999/xlink" x="0px" y="0px"
	 viewBox="0 0 171.2 126.1" enable-background="new 0 0 171.2 126.1" xml:space="preserve">
<g>
	<path fill="none" stroke="#000000" stroke-miterlimit="10" d="M0.7,44.9v69.7l0,0c3,5.3,8.6,8.5,14.7,8.5h37.9h81.5h23.6
		c4.4,0,8.6-1.9,11.5-5.1v0c0.3-0.4,0.5-0.8,0.5-1.3V45.2c0-3.2-2-6-5.1-7l-7.7-2.5l-26.5-2.4l-13-32.5H87.3L72.2,33.4l-44.7,1.7
		c-4.6,0.2-9.1,0.8-13.6,1.8l-8.3,1.9C2.7,39.4,0.7,41.9,0.7,44.9z"/>
	<path fill="none" stroke="#000000" stroke-miterlimit="10" d="M0.7,44.9"/>
	<path stroke="#000000" stroke-miterlimit="10" d="M0.7,111.1"/>
	<line stroke="#000000" stroke-miterlimit="10" x1="1.9" y1="116.5" x2="170.4" y2="116.6"/>
	<line stroke="#000000" stroke-miterlimit="10" x1="0.7" y1="44.9" x2="170" y2="45.6"/>
	<polygon fill="#FFFFFF" stroke="#000000" stroke-miterlimit="10" points="72,33.5 74.8,34.6 127.9,34 131.2,33.3 114.4,6.3 
		91.9,6.5 	"/>
	<circle stroke="#000000" stroke-miterlimit="10" cx="101.9" cy="76" r="49.4"/>
	<circle fill="#FFFFFF" cx="101.9" cy="76" r="46.1"/>
	<circle cx="101.9" cy="76" r="34.9"/>
	<circle fill="none" stroke="#000000" stroke-miterlimit="10" cx="101.9" cy="76" r="41.1"/>
	<circle fill="#FFFFFF" cx="101.9" cy="76" r="5.7"/>
	<circle cx="101.9" cy="76" r="1.1"/>
	<polyline stroke="#000000" stroke-miterlimit="10" points="91.8,6 88,0.8 117.7,0.9 114.6,6.5 	"/>
	<polyline points="10.9,37 10.9,34 31.9,31.3 32.8,34.5 30.7,34.9 	"/>
	<polyline points="44.9,34 44.9,28 67.9,28 67.9,34 	"/>
	<polyline points="135.3,33.9 136.4,30.1 155.9,31.8 155.9,36 	"/>
	<path d="M39.2,47.7l3.5,3.6c1.4,1.5,2.2,3.4,2.2,5.5v50.6c0,1-0.4,1.9-1.1,2.6l-4.2,4c-1.7,1.6-4,2.5-6.4,2.5l-29-0.1
		c-0.9,0-1.7-0.3-2.4-0.9h0c-0.7-0.7-1.2-1.6-1.2-2.6L1,45.7c0-0.2,0.2-0.4,0.4-0.4l32.3,0.2C35.8,45.4,37.8,46.3,39.2,47.7z"/>
</g>
</svg>
