<?xml version="1.0" encoding="utf-8"?>
<!-- Generator: Adobe Illustrator 18.0.0, SVG Export Plug-In . SVG Version: 6.00 Build 0)  -->
<!DOCTYPE svg PUBLIC "-//W3C//DTD SVG 1.1//EN" "http://www.w3.org/Graphics/SVG/1.1/DTD/svg11.dtd">
<svg version="1.1" id="Layer_1" xmlns="http://www.w3.org/2000/svg" xmlns:xlink="http://www.w3.org/1999/xlink" x="0px" y="0px"
	 viewBox="0 0 212.8 280.5" enable-background="new 0 0 212.8 280.5" xml:space="preserve">
<g>
	<polygon fill="#999999" points="-198.1,7.6 -85.4,235.9 -75.4,232 -155.3,-9.3 	"/>
	<path fill="#999999" d="M-194.3,0.7c0,0-56.9-33.3-48-89.9c0,0,5.7,4,8.9,4.3c10.1,0.9,17-15.3,7.2-29.1c-9.8-13.8-28-23.5-28-23.5
		s51.1-6.3,78.5,39.6c0,0,20.5,39.8,13.7,85.8L-194.3,0.7z"/>
	<polygon fill="#999999" points="-84.1,238.6 -74.5,234.8 -73.1,244.1 -78,246 	"/>
</g>
<g>
	<path fill="#808080" d="M184,270.5H29.6c-5.4,0-9.8-4.4-9.8-9.8V9.8c0-5.4,4.4-9.8,9.8-9.8H184c5.4,0,9.8,4.4,9.8,9.8v250.9
		C193.8,266.1,189.4,270.5,184,270.5z"/>
	<rect x="41.2" y="25.8" fill="#E6E6E6" width="126.7" height="11.9"/>
	<rect x="41.2" y="47.4" fill="#E6E6E6" width="126.7" height="11.9"/>
	<rect x="41.2" y="111.6" fill="#E6E6E6" width="126.7" height="11.9"/>
	<rect x="41.2" y="136.7" fill="#E6E6E6" width="126.7" height="11.9"/>
	<rect x="41.2" y="227.6" fill="#E6E6E6" width="126.7" height="11.9"/>
	<circle fill="none" stroke="#E6E6E6" stroke-width="8" stroke-miterlimit="10" cx="42.8" cy="187.6" r="33.8"/>
	<rect x="41.2" y="86.5" fill="#E6E6E6" width="126.7" height="11.9"/>
	<g>
		<path fill="#E6E6E6" d="M209.1,260.4l-15.5,10.3c-0.2,0.2-0.5,0.1-0.7-0.1l-61-91.6c-0.2-0.2-0.1-0.5,0.1-0.7l15.5-10.3
			c0.2-0.2,0.5-0.1,0.7,0.1l61,91.6C209.4,260,209.3,260.3,209.1,260.4z"/>
		<path fill="#E6E6E6" d="M130.2,177l-1.6-18.9c0-0.4,0.4-0.7,0.7-0.5l17,8.5c0.3,0.2,0.4,0.6,0.1,0.8L131,177.4
			C130.7,177.6,130.3,177.4,130.2,177z"/>
		<polygon fill="#4D4D4D" points="129.1,163.8 128.6,157.2 134.5,160.2 		"/>
		<path fill="#E6E6E6" d="M212.5,265.3L197,275.7c-0.4,0.3-0.9,0.2-1.1-0.2l-1.8-2.7c-0.3-0.4-0.2-0.9,0.2-1.1l15.4-10.4
			c0.4-0.3,0.9-0.2,1.1,0.2l1.8,2.7C213,264.5,212.9,265,212.5,265.3z"/>
	</g>
	
		<rect x="11.4" y="218.8" transform="matrix(0.9054 0.4245 -0.4245 0.9054 106.2688 16.418)" fill="#E6E6E6" width="9.8" height="55.8"/>
</g>
<text transform="matrix(1 0 0 1 -894.2448 520.8181)" fill="#999999" font-family="'MyriadPro-Regular'" font-size="194">&lt;/&gt;</text>
</svg>
