<?xml version="1.0" encoding="utf-8"?>
<!-- Generator: Adobe Illustrator 18.0.0, SVG Export Plug-In . SVG Version: 6.00 Build 0)  -->
<!DOCTYPE svg PUBLIC "-//W3C//DTD SVG 1.1//EN" "http://www.w3.org/Graphics/SVG/1.1/DTD/svg11.dtd">
<svg version="1.1" id="Layer_1" xmlns="http://www.w3.org/2000/svg" xmlns:xlink="http://www.w3.org/1999/xlink" x="0px" y="0px"
	 viewBox="0 0 150 224.2" enable-background="new 0 0 150 224.2" xml:space="preserve">
<g>
	<path fill="none" stroke="#000000" stroke-miterlimit="10" d="M38.4,129.2v-9.5h1V115h-1v-4.7c0,0-0.5-3.8-2.3-4.6
		c0,0-1.8,0.4-2.1,4.7c0,4.3,0,4.3,0,4.3h-1v4.9h1.1l0,7.7l-6.3,2.6l0.7,2.7l3.6,1.8L38.4,129.2z"/>
	<path fill="none" stroke="#000000" stroke-miterlimit="10" d="M110.9,129v-9.5h-1v-4.7h1v-4.7c0,0,0.5-3.8,2.3-4.6
		c0,0,1.8,0.4,2.1,4.7c0,4.3,0,4.3,0,4.3h1v4.9h-1.1l0,7.7l5,1.2l0.6,4.1l-3.6,1.8L110.9,129z"/>
	<path stroke="#000000" stroke-miterlimit="10" d="M72.7,0v8.7c0,0,6.5,10,6.7,25.7c0.7,6.5,0.9,8,2,18.3c0.6,5.2,7.6,44,13.1,54.6
		l1.2,2l50.5,44.8v-8.7l1.2-3.2l1,3.2v28.2h-1.7l-49-12.4v7.4l26.7,25.5l-5.7,11.4l-21.3-3.5l-4-11.4v4.7l-1.2,6.4
		c0,0-4.9,2.5-8.2-0.2c-1-1.5-2-5.4-2-5.4s-0.9,18.6-1.2,20.6c-0.2,2-2.5,6.4-3.9,6.5c-2.1,0.1-3.5-4.5-4-6
		c-0.5-1.5-2.3-21.3-2.3-21.3l-1.5,5.4c0,0-4.2,2.5-8.4,0.2c-1.7-2.5-2.2-11.1-2.2-11.1l-3.5,11.6l-20.8,3.7l-7.2-9.4l26.7-28v-8.2
		L4.7,174.6H1.9v-28.7l1.2-2.7l1.5,3v8.4l50.2-45.3c0,0,11.6-39.7,11.4-55.6c0-0.3,0-0.7,0.1-1l0.1-5.5l0.8-11.8
		c0,0-0.8-16.6,5.4-26.7"/>
	<rect x="34" y="110.5" stroke="#000000" stroke-miterlimit="10" width="4.2" height="1.5"/>
	<rect x="111.1" y="110.5" stroke="#000000" stroke-miterlimit="10" width="4.2" height="1.5"/>
</g>
</svg>
