<?xml version="1.0" encoding="utf-8"?>
<!-- Generator: Adobe Illustrator 18.0.0, SVG Export Plug-In . SVG Version: 6.00 Build 0)  -->
<!DOCTYPE svg PUBLIC "-//W3C//DTD SVG 1.1//EN" "http://www.w3.org/Graphics/SVG/1.1/DTD/svg11.dtd">
<svg version="1.1" id="Layer_1" xmlns="http://www.w3.org/2000/svg" xmlns:xlink="http://www.w3.org/1999/xlink" x="0px" y="0px"
	 viewBox="0 0 46 34" enable-background="new 0 0 46 34" xml:space="preserve">
<g>
	<path fill="#333333" d="M41.8,8.5H4.2C1.9,8.5,0,6.6,0,4.2v0C0,1.9,1.9,0,4.2,0l37.5,0C44.1,0,46,1.9,46,4.2v0
		C46,6.6,44.1,8.5,41.8,8.5z"/>
	<path fill="#333333" d="M41.8,21.2H4.2C1.9,21.2,0,19.3,0,17v0c0-2.3,1.9-4.2,4.2-4.2h37.5c2.3,0,4.2,1.9,4.2,4.2v0
		C46,19.3,44.1,21.2,41.8,21.2z"/>
	<path fill="#333333" d="M41.8,34H4.2C1.9,34,0,32,0,29.7v0c0-2.3,1.9-4.2,4.2-4.2h37.5c2.3,0,4.2,1.9,4.2,4.2v0
		C46,32,44.1,34,41.8,34z"/>
</g>
</svg>
