<?xml version="1.0" encoding="utf-8"?>
<!-- Generator: Adobe Illustrator 18.0.0, SVG Export Plug-In . SVG Version: 6.00 Build 0)  -->
<!DOCTYPE svg PUBLIC "-//W3C//DTD SVG 1.1//EN" "http://www.w3.org/Graphics/SVG/1.1/DTD/svg11.dtd">
<svg version="1.1" id="Layer_1" xmlns="http://www.w3.org/2000/svg" xmlns:xlink="http://www.w3.org/1999/xlink" x="0px" y="0px"
	 viewBox="0 0 467.4 215.2" enable-background="new 0 0 467.4 215.2" xml:space="preserve">
<g>
	<g>
		<g>
			<path fill="#999999" d="M58.9,96.5c-0.6,0-1.2,0.3-1.6,0.7c-0.4,0.4-0.6,1-0.5,1.6l2.8,19.5c0,0.2,0.1-0.4,0.2,0.6H7.4V11h72v87
				c0-0.1-0.2-0.1-0.4-0.2L58.9,96.5z"/>
			<path fill="#999999" d="M62.5,117.1c-0.1,0.1-0.2,0.2-0.2,0.2l-2.6-18.1l18.8,1.2c0,0.1-0.1,0.2-0.2,0.2L62.5,117.1z"/>
			<path fill="#FFFFFF" d="M64.5,119c-0.7,0.8-1.7,1.3-2.6,1.3c-1,0-1.7-0.3-2.1-1.3L64.5,119L64.5,119z"/>
			<path fill="#FFFFFF" d="M80,102.4l-0.6,0.3V98c1,0.2,1.1,0.6,1.3,1.1C81.1,100.1,80.9,101.4,80,102.4z"/>
			<path fill="#FFFFFF" d="M79.4,102.7V98c0-0.1-0.2-0.1-0.4-0.2l-20.2-1.3c-0.6,0-1.1,0.3-1.5,0.7c-0.4,0.4-0.5,1.1-0.5,1.6
				l2.9,19.5c0,0.2,0.1-0.4,0.2,0.6h4.7L79.4,102.7z M79.2,101.5L63.5,118c-1,1-2.3,1.1-2.5,0.1l-2.8-19.4c-0.1-0.4,0.3-0.8,0.8-0.8
				l20.2,1.3C80.2,99.2,80.2,100.5,79.2,101.5z"/>
			<path fill="#FFFFFF" d="M79.1,99.1L59,97.8c-0.5,0-0.8,0.4-0.8,0.8l2.8,19.4c0.1,1,1.5,0.9,2.5-0.1l15.7-16.5
				C80.2,100.5,80.2,99.2,79.1,99.1z M78.4,100.4c0,0.1-0.1,0.2-0.2,0.2l-15.7,16.5c-0.1,0.1-0.2,0.2-0.2,0.2l-2.6-18.1L78.4,100.4z
				"/>
		</g>
		<rect x="15.9" y="20.8" fill="#FFFFFF" width="47" height="2.9"/>
		<rect x="15.9" y="33.6" fill="#FFFFFF" width="45" height="2.9"/>
		<rect x="15.9" y="46.4" fill="#FFFFFF" width="37.8" height="2.9"/>
		<rect x="15.9" y="59.1" fill="#FFFFFF" width="53.3" height="2.9"/>
		<rect x="15.9" y="71.9" fill="#FFFFFF" width="44.1" height="2.9"/>
		<rect x="15.9" y="97.4" fill="#FFFFFF" width="32.1" height="2.9"/>
		<rect x="15.9" y="84.7" fill="#FFFFFF" width="45.3" height="2.9"/>
	</g>
	<g>
		<g>
			<path fill="#999999" d="M76.6,85.6c-0.6,0-1.2,0.3-1.6,0.7c-0.4,0.4-0.6,1-0.5,1.6l2.8,20c0,0.2,0.1,0.1,0.2,1.1H24.4V1h73v86.1
				c0-0.1-0.4-0.1-0.6-0.2L76.6,85.6z"/>
			<path fill="#999999" d="M80.1,106.2c-0.1,0.1-0.2,0.2-0.2,0.2l-2.6-18.1l18.8,1.2c0,0.1-0.1,0.2-0.2,0.2L80.1,106.2z"/>
			<path fill="#FFFFFF" d="M82.1,108.5c-0.7,0.8-1.7,1.5-2.6,1.5c-1,0-1.7,0-2.1-1h4.7L82.1,108.5z"/>
			<path fill="#FFFFFF" d="M97.8,91.5l-0.4,0.3v-4.7c0,0.2,1,0.6,1.2,1.1C99,89.2,98.7,90.5,97.8,91.5z"/>
			<path fill="#FFFFFF" d="M97.4,91.8v-4.7c0-0.1-0.4-0.1-0.6-0.2l-20.3-1.3c-0.6,0-1.1,0.3-1.5,0.7c-0.4,0.4-0.6,1.1-0.5,1.6
				l2.8,19.9c0,0.2,0.1,0.1,0.2,1.1h4.7L97.4,91.8z M96.9,90.6l-15.7,16.5c-1,1-2.3,1.1-2.5,0.1l-2.8-19.4c-0.1-0.4,0.3-0.8,0.8-0.8
				l20.2,1.3C97.8,88.3,97.8,89.6,96.9,90.6z"/>
			<path fill="#FFFFFF" d="M96.8,88.2L76.6,87c-0.5,0-0.8,0.4-0.8,0.8l2.8,19.4c0.1,1,1.5,0.9,2.5-0.1l15.7-16.5
				C97.8,89.6,97.8,88.3,96.8,88.2z M96.1,89.5c0,0.1-0.1,0.2-0.2,0.2l-15.7,16.5c-0.1,0.1-0.2,0.2-0.2,0.2l-2.6-18.1L96.1,89.5z"/>
		</g>
		<rect x="33.5" y="10" fill="#FFFFFF" width="47" height="2.9"/>
		<rect x="33.5" y="22.7" fill="#FFFFFF" width="45" height="2.9"/>
		<rect x="33.5" y="35.5" fill="#FFFFFF" width="37.8" height="2.9"/>
		<rect x="33.5" y="48.3" fill="#FFFFFF" width="53.3" height="2.9"/>
		<rect x="33.5" y="61" fill="#FFFFFF" width="44.1" height="2.9"/>
		<rect x="33.5" y="86.6" fill="#FFFFFF" width="32.1" height="2.9"/>
		<rect x="33.5" y="73.8" fill="#FFFFFF" width="45.3" height="2.9"/>
	</g>
</g>
<g>
	<path fill="#999999" d="M268.4,1.2c-34,0-60.2,26.7-60.2,59.7s26.5,59.3,59.5,59.3c33,0,59.5-26.2,59.5-60.2h-58.9V1.2z"/>
	<path fill="#999999" d="M274.4,1.7V54h53.4C327.8,26,303.4,1.7,274.4,1.7z"/>
	<g>
		<path fill="#999999" d="M392.2,18.8v86.4h-6.9V18.8c0-1.1,0.9-2,2-2h2.9C391.3,16.8,392.2,17.7,392.2,18.8z"/>
		<path fill="#999999" d="M465.4,117.3h-84.4c-1.1,0-2-0.9-2-2v-2.9c0-1.1,0.9-2,2-2h84.4c1.1,0,2,0.9,2,2v2.9
			C467.4,116.4,466.5,117.3,465.4,117.3z"/>
		<path fill="#999999" d="M415.8,3.7v101.1h-6.9V3.7c0-1.1,0.9-2,2-2h2.9C414.9,1.7,415.8,2.6,415.8,3.7z"/>
		<path fill="#999999" d="M463,32.7v73.1h-6.9V32.7c0-1.1,0.9-2,2-2h2.9C462.1,30.7,463,31.6,463,32.7z"/>
		<path fill="#999999" d="M439.4,2.3v103.9h-6.9V2.3c0-1.1,0.9-2,2-2h2.9C438.5,0.3,439.4,1.2,439.4,2.3z"/>
	</g>
</g>
<text transform="matrix(1 0 0 1 15.7471 178.9081)"><tspan x="0" y="0" font-family="'Montserrat-Hairline'" font-size="16">Easy Data</tspan><tspan x="-11.8" y="30" font-family="'Montserrat-Hairline'" font-size="16">Organization</tspan></text>
<text transform="matrix(1 0 0 1 265.956 178.9081)"><tspan x="0" y="0" font-family="'Montserrat-Hairline'" font-size="16">Efficient Reporting</tspan><tspan x="21.2" y="30" font-family="'Montserrat-Hairline'" font-size="16">and Statistics</tspan></text>
</svg>
