<?xml version="1.0" encoding="utf-8"?>
<!-- Generator: Adobe Illustrator 18.0.0, SVG Export Plug-In . SVG Version: 6.00 Build 0)  -->
<!DOCTYPE svg PUBLIC "-//W3C//DTD SVG 1.1//EN" "http://www.w3.org/Graphics/SVG/1.1/DTD/svg11.dtd">
<svg version="1.1" id="Layer_1" xmlns="http://www.w3.org/2000/svg" xmlns:xlink="http://www.w3.org/1999/xlink" x="0px" y="0px"
	 viewBox="0 0 475.1 215.2" enable-background="new 0 0 475.1 215.2" xml:space="preserve">
<g>
	<polygon fill="#999999" points="30.7,73 41.5,104 66.6,104 77.9,73 	"/>
	<circle fill="#999999" cx="54.3" cy="42.3" r="40.1"/>
	<rect x="41.9" y="107.3" fill="#999999" width="24.6" height="3.2"/>
	<rect x="43.2" y="112.9" fill="#999999" width="22" height="3.2"/>
	<rect x="44.5" y="119.1" fill="#999999" width="19.5" height="3.2"/>
</g>
<g>
	<g>
		<g>
			<path fill="#999999" d="M272.9,96c-0.6,0-1.2,0.3-1.7,0.8c-0.4,0.5-0.6,1.1-0.5,1.8l3,21.6c0,0.2,0.1-0.1,0.2,0.9h-55.8V2h77
				v95.6c0-0.1-0.4-0.2-0.7-0.2L272.9,96z"/>
			<path fill="#999999" d="M276.7,118.5c-0.1,0.1-0.2,0.2-0.2,0.2l-2.8-19.8l20,1.3c-0.1,0.1-0.1,0.2-0.2,0.3L276.7,118.5z"/>
			<path fill="#FFFFFF" d="M278.8,120.8c-0.8,0.9-1.8,1.5-2.8,1.5c-1,0-1.8-1.3-2.2-1.3h5L278.8,120.8z"/>
			<path fill="#FFFFFF" d="M295.5,102.5l-0.4,0.3v-5.2c2,0.2,1.1,0.7,1.3,1.3C296.8,99.9,296.5,101.4,295.5,102.5z"/>
			<path fill="#FFFFFF" d="M295.1,102.8v-5.2c0-0.1-0.4-0.1-0.7-0.2L272.8,96c-0.6,0-1.2,0.3-1.6,0.8c-0.4,0.5-0.6,1.2-0.5,1.8
				l3,21.5c0,0.2,0.1-0.1,0.2,0.9h5L295.1,102.8z M294.5,101.5l-16.7,18.1c-1.1,1.1-2.5,1.2-2.6,0.1l-3-21.3
				c-0.1-0.5,0.3-0.9,0.8-0.9l21.5,1.4C295.5,98.9,295.6,100.3,294.5,101.5z"/>
			<path fill="#FFFFFF" d="M294.4,98.8L273,97.5c-0.5,0-0.9,0.4-0.8,0.9l3,21.3c0.2,1.1,1.6,1,2.6-0.1l16.7-18.1
				C295.6,100.3,295.5,98.9,294.4,98.8z M293.7,100.2c-0.1,0.1-0.1,0.2-0.2,0.3l-16.7,18.1c-0.1,0.1-0.2,0.2-0.2,0.2l-2.8-19.8
				L293.7,100.2z"/>
		</g>
		<rect x="227.1" y="13.5" fill="#FFFFFF" width="50.1" height="3.1"/>
		<rect x="227.1" y="27.5" fill="#FFFFFF" width="47.9" height="3.1"/>
		<rect x="227.1" y="41.5" fill="#FFFFFF" width="40.2" height="3.1"/>
		<rect x="227.1" y="55.5" fill="#FFFFFF" width="56.8" height="3.1"/>
		<rect x="227.1" y="69.5" fill="#FFFFFF" width="46.9" height="3.1"/>
		<rect x="227.1" y="97.5" fill="#FFFFFF" width="34.2" height="3.1"/>
		<rect x="227.1" y="83.5" fill="#FFFFFF" width="48.2" height="3.1"/>
	</g>
	<g>
		<g>
			<path fill="#999999" d="M452.4,96.3c-0.6,0-1.2,0.3-1.7,0.8c-0.4,0.5-0.6,1.1-0.5,1.8l3,21c0,0.2,0.1,0.2,0.2,0.2h-55.3V2h75
				v95.9c0-0.1,0.4-0.2,0.1-0.2L452.4,96.3z"/>
			<path fill="#999999" d="M456.2,118.8c-0.1,0.1-0.2,0.2-0.2,0.2l-2.8-19.8l20,1.3c-0.1,0.1-0.1,0.2-0.2,0.3L456.2,118.8z"/>
			<path fill="#FFFFFF" d="M458.3,120.4c-0.8,0.9-1.8,1.2-2.8,1.2c-1,0-1.8-0.6-2.2-1.6h5L458.3,120.4z"/>
			<path fill="#FFFFFF" d="M474.2,102.7l-1.1,0.3v-5.2c2,0.2,1.4,0.7,1.7,1.3C475.2,100.2,475.2,101.6,474.2,102.7z"/>
			<path fill="#FFFFFF" d="M473.1,103.1v-5.2c0-0.1,0.4-0.1,0.1-0.2L452,96.3c-0.6,0-1,0.3-1.5,0.8c-0.4,0.5-0.5,1.2-0.4,1.8
				l3.1,20.9c0,0.2,0.1,0.2,0.2,0.2h5L473.1,103.1z M474,101.8l-16.7,18.1c-1.1,1.1-2.5,1.2-2.6,0.1l-3-21.3
				c-0.1-0.5,0.3-0.9,0.8-0.9l21.5,1.4C475,99.2,475.1,100.6,474,101.8z"/>
			<path fill="#FFFFFF" d="M473.9,99.1l-21.5-1.4c-0.5,0-0.9,0.4-0.8,0.9l3,21.3c0.2,1.1,1.6,1,2.6-0.1l16.7-18.1
				C475.1,100.6,475,99.2,473.9,99.1z M473.2,100.5c-0.1,0.1-0.1,0.2-0.2,0.3l-16.7,18.1c-0.1,0.1-0.2,0.2-0.2,0.2l-2.8-19.8
				L473.2,100.5z"/>
		</g>
		<rect x="406.6" y="13.8" fill="#FFFFFF" width="50.1" height="3.1"/>
		<rect x="406.6" y="27.8" fill="#FFFFFF" width="47.9" height="3.1"/>
		<rect x="406.6" y="41.8" fill="#FFFFFF" width="40.2" height="3.1"/>
		<rect x="406.6" y="55.8" fill="#FFFFFF" width="56.8" height="3.1"/>
		<rect x="406.6" y="69.8" fill="#FFFFFF" width="46.9" height="3.1"/>
		<rect x="406.6" y="97.8" fill="#FFFFFF" width="34.2" height="3.1"/>
		<rect x="406.6" y="83.8" fill="#FFFFFF" width="48.2" height="3.1"/>
	</g>
	<g>
		<g>
			<line fill="none" stroke="#999999" stroke-miterlimit="10" x1="329.1" y1="78.5" x2="374.1" y2="78.5"/>
			<g>
				<polygon fill="#999999" points="332.3,82.6 330.7,78.9 332.3,75.2 323.5,78.9 				"/>
			</g>
		</g>
	</g>
	<g>
		<g>
			<line fill="none" stroke="#999999" stroke-miterlimit="10" x1="369.1" y1="38.5" x2="325.1" y2="38.5"/>
			<g>
				<polygon fill="#999999" points="366.7,35.1 368.3,38.8 366.7,42.5 375.5,38.8 				"/>
			</g>
		</g>
	</g>
</g>
<text transform="matrix(1 0 0 1 10.3125 180.9082)"><tspan x="0" y="0" font-family="'Montserrat-Hairline'" font-size="16">Smart Data</tspan><tspan x="-8.4" y="30" font-family="'Montserrat-Hairline'" font-size="16">Management</tspan></text>
<text transform="matrix(1 0 0 1 298.1329 180.9082)"><tspan x="0" y="0" font-family="'Montserrat-Hairline'" font-size="16">Easy Data Sharing</tspan><tspan x="11.7" y="30" font-family="'Montserrat-Hairline'" font-size="16">Between Users</tspan></text>
</svg>
