<?xml version="1.0" encoding="utf-8"?>
<!-- Generator: Adobe Illustrator 18.0.0, SVG Export Plug-In . SVG Version: 6.00 Build 0)  -->
<!DOCTYPE svg PUBLIC "-//W3C//DTD SVG 1.1//EN" "http://www.w3.org/Graphics/SVG/1.1/DTD/svg11.dtd">
<svg version="1.1" id="Layer_1" xmlns="http://www.w3.org/2000/svg" xmlns:xlink="http://www.w3.org/1999/xlink" x="0px" y="0px"
	 viewBox="0 0 1020.4 215.2" enable-background="new 0 0 1020.4 215.2" xml:space="preserve">
<g>
	<g>
		<g>
			<path fill="#999999" d="M60.8,96.5c-0.6,0-1.2,0.3-1.6,0.7c-0.4,0.4-0.6,1-0.5,1.6l2.8,19.5c0,0.2,0.1-0.4,0.2,0.6H9.4V11h72v87
				c0-0.1-0.3-0.1-0.5-0.2L60.8,96.5z"/>
			<path fill="#999999" d="M64.4,117.1c-0.1,0.1-0.2,0.2-0.2,0.2l-2.6-18.1l18.8,1.2c0,0.1-0.1,0.2-0.2,0.2L64.4,117.1z"/>
			<path fill="#FFFFFF" d="M66.3,119c-0.7,0.8-1.7,1.3-2.6,1.3c-1,0-1.7-0.3-2.1-1.3L66.3,119L66.3,119z"/>
			<path fill="#FFFFFF" d="M81.9,102.4l-0.5,0.3V98c1,0.2,1.1,0.6,1.3,1.1C83.1,100.1,82.8,101.4,81.9,102.4z"/>
			<path fill="#FFFFFF" d="M81.4,102.7V98c0-0.1-0.3-0.1-0.5-0.2l-20.2-1.3c-0.6,0-1.1,0.3-1.5,0.7c-0.4,0.4-0.5,1.1-0.5,1.6
				l2.9,19.5c0,0.2,0.1-0.4,0.2,0.6h4.7L81.4,102.7z M81.1,101.5L65.4,118c-1,1-2.3,1.1-2.5,0.1l-2.8-19.4c-0.1-0.4,0.3-0.8,0.8-0.8
				L81,99.1C82,99.2,82.1,100.5,81.1,101.5z"/>
			<path fill="#FFFFFF" d="M81,99.1l-20.2-1.3c-0.5,0-0.8,0.4-0.8,0.8l2.8,19.4c0.1,1,1.5,0.9,2.5-0.1l15.7-16.5
				C82.1,100.5,82,99.2,81,99.1z M80.3,100.4c0,0.1-0.1,0.2-0.2,0.2l-15.7,16.5c-0.1,0.1-0.2,0.2-0.2,0.2l-2.6-18.1L80.3,100.4z"/>
		</g>
		<rect x="17.7" y="20.8" fill="#FFFFFF" width="47" height="2.9"/>
		<rect x="17.7" y="33.6" fill="#FFFFFF" width="45" height="2.9"/>
		<rect x="17.7" y="46.4" fill="#FFFFFF" width="37.8" height="2.9"/>
		<rect x="17.7" y="59.1" fill="#FFFFFF" width="53.3" height="2.9"/>
		<rect x="17.7" y="71.9" fill="#FFFFFF" width="44.1" height="2.9"/>
		<rect x="17.7" y="97.4" fill="#FFFFFF" width="32.1" height="2.9"/>
		<rect x="17.7" y="84.7" fill="#FFFFFF" width="45.3" height="2.9"/>
	</g>
	<g>
		<g>
			<path fill="#999999" d="M78.4,85.6c-0.6,0-1.2,0.3-1.6,0.7c-0.4,0.4-0.6,1-0.5,1.6l2.8,20c0,0.2,0.1,0.1,0.2,1.1H26.4V1h73v86.1
				c0-0.1-0.5-0.1-0.7-0.2L78.4,85.6z"/>
			<path fill="#999999" d="M82,106.2c-0.1,0.1-0.2,0.2-0.2,0.2l-2.6-18.1l18.8,1.2c0,0.1-0.1,0.2-0.2,0.2L82,106.2z"/>
			<path fill="#FFFFFF" d="M84,108.5c-0.7,0.8-1.7,1.5-2.6,1.5c-1,0-1.7,0-2.1-1H84L84,108.5z"/>
			<path fill="#FFFFFF" d="M99.7,91.5l-0.3,0.3v-4.7c0,0.2,1,0.6,1.2,1.1C101,89.2,100.6,90.5,99.7,91.5z"/>
			<path fill="#FFFFFF" d="M99.4,91.8v-4.7c0-0.1-0.5-0.1-0.7-0.2l-20.3-1.3c-0.6,0-1.2,0.3-1.6,0.7c-0.4,0.4-0.6,1.1-0.5,1.6
				l2.8,19.9c0,0.2,0.1,0.1,0.2,1.1H84L99.4,91.8z M98.7,90.6L83,107.1c-1,1-2.3,1.1-2.5,0.1l-2.8-19.4c-0.1-0.4,0.3-0.8,0.8-0.8
				l20.2,1.3C99.6,88.3,99.7,89.6,98.7,90.6z"/>
			<path fill="#FFFFFF" d="M98.6,88.2L78.4,87c-0.5,0-0.8,0.4-0.8,0.8l2.8,19.4c0.1,1,1.5,0.9,2.5-0.1l15.7-16.5
				C99.7,89.6,99.6,88.3,98.6,88.2z M97.9,89.5c0,0.1-0.1,0.2-0.2,0.2L82,106.2c-0.1,0.1-0.2,0.2-0.2,0.2l-2.6-18.1L97.9,89.5z"/>
		</g>
		<rect x="35.4" y="10" fill="#FFFFFF" width="47" height="2.9"/>
		<rect x="35.4" y="22.7" fill="#FFFFFF" width="45" height="2.9"/>
		<rect x="35.4" y="35.5" fill="#FFFFFF" width="37.8" height="2.9"/>
		<rect x="35.4" y="48.3" fill="#FFFFFF" width="53.3" height="2.9"/>
		<rect x="35.4" y="61" fill="#FFFFFF" width="44.1" height="2.9"/>
		<rect x="35.4" y="86.6" fill="#FFFFFF" width="32.1" height="2.9"/>
		<rect x="35.4" y="73.8" fill="#FFFFFF" width="45.3" height="2.9"/>
	</g>
</g>
<g>
	<polygon fill="#999999" points="577,71 587.8,102 612.9,102 624.2,71 	"/>
	<circle fill="#999999" cx="600.6" cy="40.3" r="40.1"/>
	<rect x="588.2" y="105.3" fill="#999999" width="24.6" height="3.2"/>
	<rect x="589.5" y="110.9" fill="#999999" width="22" height="3.2"/>
	<rect x="590.8" y="117.1" fill="#999999" width="19.5" height="3.2"/>
</g>
<g>
	<path fill="#999999" d="M264.4,1.2c-34,0-59.9,26.7-59.9,59.7s26.6,59.3,59.6,59.3c33,0,59.6-26.2,59.6-60.2h-59.3V1.2z"/>
	<path fill="#999999" d="M270.4,1.7V54h53.8C324.2,26,299.4,1.7,270.4,1.7z"/>
	<g>
		<path fill="#999999" d="M388.7,18.8v86.4h-6.9V18.8c0-1.1,0.9-2,2-2h2.9C387.8,16.8,388.7,17.7,388.7,18.8z"/>
		<path fill="#999999" d="M461.8,117.3h-84.4c-1.1,0-2-0.9-2-2v-2.9c0-1.1,0.9-2,2-2h84.4c1.1,0,2,0.9,2,2v2.9
			C463.8,116.4,462.9,117.3,461.8,117.3z"/>
		<path fill="#999999" d="M412.3,3.7v101.1h-6.9V3.7c0-1.1,0.9-2,2-2h2.9C411.4,1.7,412.3,2.6,412.3,3.7z"/>
		<path fill="#999999" d="M459.5,32.7v73.1h-6.9V32.7c0-1.1,0.9-2,2-2h2.9C458.6,30.7,459.5,31.6,459.5,32.7z"/>
		<path fill="#999999" d="M435.9,2.3v103.9H429V2.3c0-1.1,0.9-2,2-2h2.9C435,0.3,435.9,1.2,435.9,2.3z"/>
	</g>
</g>
<g>
	<g>
		<g>
			<path fill="#999999" d="M819.2,94c-0.6,0-1.2,0.3-1.7,0.8c-0.4,0.5-0.6,1.1-0.5,1.8l3,21.6c0,0.2,0.1-0.1,0.2,0.9h-55.8V0h77
				v95.6c0-0.1-0.4-0.2-0.7-0.2L819.2,94z"/>
			<path fill="#999999" d="M823,116.5c-0.1,0.1-0.2,0.2-0.2,0.2L820,96.9l20,1.3c-0.1,0.1-0.1,0.2-0.2,0.3L823,116.5z"/>
			<path fill="#FFFFFF" d="M825.2,118.8c-0.8,0.9-1.8,1.5-2.8,1.5c-1,0-1.8-1.3-2.2-1.3h5L825.2,118.8z"/>
			<path fill="#FFFFFF" d="M841.8,100.5l-0.4,0.3v-5.2c2,0.2,1.1,0.7,1.3,1.3C843.1,97.9,842.8,99.4,841.8,100.5z"/>
			<path fill="#FFFFFF" d="M841.4,100.8v-5.2c0-0.1-0.4-0.1-0.7-0.2L819.2,94c-0.6,0-1.2,0.3-1.6,0.8c-0.4,0.5-0.6,1.2-0.5,1.8
				l3,21.5c0,0.2,0.1-0.1,0.2,0.9h5L841.4,100.8z M840.8,99.5l-16.7,18.1c-1.1,1.1-2.5,1.2-2.6,0.1l-3-21.3
				c-0.1-0.5,0.3-0.9,0.8-0.9l21.5,1.4C841.8,96.9,841.9,98.3,840.8,99.5z"/>
			<path fill="#FFFFFF" d="M840.7,96.8l-21.5-1.4c-0.5,0-0.9,0.4-0.8,0.9l3,21.3c0.2,1.1,1.6,1,2.6-0.1l16.7-18.1
				C841.9,98.3,841.8,96.9,840.7,96.8z M840,98.2c-0.1,0.1-0.1,0.2-0.2,0.3L823,116.5c-0.1,0.1-0.2,0.2-0.2,0.2L820,96.9L840,98.2z"
				/>
		</g>
		<rect x="773.4" y="11.5" fill="#FFFFFF" width="50.1" height="3.1"/>
		<rect x="773.4" y="25.5" fill="#FFFFFF" width="47.9" height="3.1"/>
		<rect x="773.4" y="39.5" fill="#FFFFFF" width="40.2" height="3.1"/>
		<rect x="773.4" y="53.5" fill="#FFFFFF" width="56.8" height="3.1"/>
		<rect x="773.4" y="67.5" fill="#FFFFFF" width="46.9" height="3.1"/>
		<rect x="773.4" y="95.5" fill="#FFFFFF" width="34.2" height="3.1"/>
		<rect x="773.4" y="81.5" fill="#FFFFFF" width="48.2" height="3.1"/>
	</g>
	<g>
		<g>
			<path fill="#999999" d="M998.7,94.3c-0.6,0-1.2,0.3-1.7,0.8c-0.4,0.5-0.6,1.1-0.5,1.8l3,21c0,0.2,0.1,0.2,0.2,0.2h-55.3V0h75
				v95.9c0-0.1,0.4-0.2,0.1-0.2L998.7,94.3z"/>
			<path fill="#999999" d="M1002.6,116.8c-0.1,0.1-0.2,0.2-0.2,0.2l-2.8-19.8l20,1.3c-0.1,0.1-0.1,0.2-0.2,0.3L1002.6,116.8z"/>
			<path fill="#FFFFFF" d="M1004.7,118.4c-0.8,0.9-1.8,1.2-2.8,1.2c-1,0-1.8-0.6-2.2-1.6h5L1004.7,118.4z"/>
			<path fill="#FFFFFF" d="M1020.5,100.7l-1.1,0.3v-5.2c2,0.2,1.4,0.7,1.7,1.3C1021.5,98.2,1021.6,99.6,1020.5,100.7z"/>
			<path fill="#FFFFFF" d="M1019.4,101.1v-5.2c0-0.1,0.4-0.1,0.1-0.2l-21.2-1.4c-0.6,0-1,0.3-1.5,0.8c-0.4,0.5-0.5,1.2-0.4,1.8
				l3.1,20.9c0,0.2,0.1,0.2,0.2,0.2h5L1019.4,101.1z M1020.3,99.8l-16.7,18.1c-1.1,1.1-2.5,1.2-2.6,0.1l-3-21.3
				c-0.1-0.5,0.3-0.9,0.8-0.9l21.5,1.4C1021.3,97.2,1021.4,98.6,1020.3,99.8z"/>
			<path fill="#FFFFFF" d="M1020.2,97.1l-21.5-1.4c-0.5,0-0.9,0.4-0.8,0.9l3,21.3c0.2,1.1,1.6,1,2.6-0.1l16.7-18.1
				C1021.4,98.6,1021.3,97.2,1020.2,97.1z M1019.5,98.5c-0.1,0.1-0.1,0.2-0.2,0.3l-16.7,18.1c-0.1,0.1-0.2,0.2-0.2,0.2l-2.8-19.8
				L1019.5,98.5z"/>
		</g>
		<rect x="952.9" y="11.8" fill="#FFFFFF" width="50.1" height="3.1"/>
		<rect x="952.9" y="25.8" fill="#FFFFFF" width="47.9" height="3.1"/>
		<rect x="952.9" y="39.8" fill="#FFFFFF" width="40.2" height="3.1"/>
		<rect x="952.9" y="53.8" fill="#FFFFFF" width="56.8" height="3.1"/>
		<rect x="952.9" y="67.8" fill="#FFFFFF" width="46.9" height="3.1"/>
		<rect x="952.9" y="95.8" fill="#FFFFFF" width="34.2" height="3.1"/>
		<rect x="952.9" y="81.8" fill="#FFFFFF" width="48.2" height="3.1"/>
	</g>
	<g>
		<g>
			<line fill="none" stroke="#999999" stroke-miterlimit="10" x1="875.4" y1="76.5" x2="920.4" y2="76.5"/>
			<g>
				<polygon fill="#999999" points="878.6,80.6 877,76.9 878.6,73.2 869.8,76.9 				"/>
			</g>
		</g>
	</g>
	<g>
		<g>
			<line fill="none" stroke="#999999" stroke-miterlimit="10" x1="915.4" y1="36.5" x2="871.4" y2="36.5"/>
			<g>
				<polygon fill="#999999" points="913.1,33.1 914.6,36.8 913.1,40.5 921.8,36.8 				"/>
			</g>
		</g>
	</g>
</g>
<text transform="matrix(1 0 0 1 13.9102 178.9081)"><tspan x="0" y="0" font-family="'Montserrat-Hairline'" font-size="16">Easy Data</tspan><tspan x="-11.8" y="30" font-family="'Montserrat-Hairline'" font-size="16">Organization</tspan></text>
<text transform="matrix(1 0 0 1 556.6248 178.9082)"><tspan x="0" y="0" font-family="'Montserrat-Hairline'" font-size="16">Smart Data</tspan><tspan x="-8.4" y="30" font-family="'Montserrat-Hairline'" font-size="16">Management</tspan></text>
<text transform="matrix(1 0 0 1 246.3788 178.9082)"><tspan x="0" y="0" font-family="'Montserrat-Hairline'" font-size="16">Efficient Reporting</tspan><tspan x="21.2" y="30" font-family="'Montserrat-Hairline'" font-size="16">and Statistics</tspan></text>
<text transform="matrix(1 0 0 1 844.4452 178.9082)"><tspan x="0" y="0" font-family="'Montserrat-Hairline'" font-size="16">Easy Data Sharing</tspan><tspan x="11.7" y="30" font-family="'Montserrat-Hairline'" font-size="16">Between Users</tspan></text>
</svg>
