<?xml version="1.0" encoding="utf-8"?>
<!-- Generator: Adobe Illustrator 18.0.0, SVG Export Plug-In . SVG Version: 6.00 Build 0)  -->
<!DOCTYPE svg PUBLIC "-//W3C//DTD SVG 1.1//EN" "http://www.w3.org/Graphics/SVG/1.1/DTD/svg11.dtd">
<svg version="1.1" id="Layer_1" xmlns="http://www.w3.org/2000/svg" xmlns:xlink="http://www.w3.org/1999/xlink" x="0px" y="0px"
	 viewBox="0 0 391 215.2" enable-background="new 0 0 391 215.2" xml:space="preserve">
<g>
	<g>
		<g>
			<path fill="#999999" d="M72.8,111c-0.6,0-1.2,0.3-1.6,0.7c-0.4,0.4-0.6,1-0.5,1.6l2.8,19.3c0,0.2,0.1-0.6,0.2,0.4H21.4V25h72
				v87.4c0-0.1-0.3-0.1-0.5-0.2L72.8,111z"/>
			<path fill="#999999" d="M76.4,131.5c-0.1,0.1-0.2,0.2-0.2,0.2l-2.6-18.1l18.8,1.2c0,0.1-0.1,0.2-0.2,0.2L76.4,131.5z"/>
			<path fill="#FFFFFF" d="M78.3,133.2c-0.7,0.8-1.7,1.2-2.6,1.2c-1,0-1.7-0.4-2.1-1.4h4.7L78.3,133.2z"/>
			<path fill="#FFFFFF" d="M93.9,116.8l-0.5,0.3v-4.7c1,0.2,1.1,0.6,1.3,1.1C95.1,114.5,94.8,115.8,93.9,116.8z"/>
			<path fill="#FFFFFF" d="M93.4,117.1v-4.7c0-0.1-0.3-0.1-0.5-0.2L72.7,111c-0.6,0-1.1,0.3-1.5,0.7c-0.4,0.4-0.5,1.1-0.5,1.6
				l2.9,19.3c0,0.2,0.1-0.6,0.2,0.4h4.7L93.4,117.1z M93.1,115.9l-15.7,16.5c-1,1-2.3,1.1-2.5,0.1l-2.8-19.4
				c-0.1-0.4,0.3-0.8,0.8-0.8l20.2,1.3C94,113.6,94.1,114.9,93.1,115.9z"/>
			<path fill="#FFFFFF" d="M93,113.6l-20.2-1.3c-0.5,0-0.8,0.4-0.8,0.8l2.8,19.4c0.1,1,1.5,0.9,2.5-0.1l15.7-16.5
				C94.1,114.9,94,113.6,93,113.6z M92.3,114.8c0,0.1-0.1,0.2-0.2,0.2l-15.7,16.5c-0.1,0.1-0.2,0.2-0.2,0.2l-2.6-18.1L92.3,114.8z"
				/>
		</g>
		<rect x="29.7" y="35.3" fill="#FFFFFF" width="47" height="2.9"/>
		<rect x="29.7" y="48" fill="#FFFFFF" width="45" height="2.9"/>
		<rect x="29.7" y="60.8" fill="#FFFFFF" width="37.8" height="2.9"/>
		<rect x="29.7" y="73.6" fill="#FFFFFF" width="53.3" height="2.9"/>
		<rect x="29.7" y="86.3" fill="#FFFFFF" width="44.1" height="2.9"/>
		<rect x="29.7" y="111.9" fill="#FFFFFF" width="32.1" height="2.9"/>
		<rect x="29.7" y="99.1" fill="#FFFFFF" width="45.3" height="2.9"/>
	</g>
	<g>
		<g>
			<path fill="#999999" d="M90.4,100.1c-0.6,0-1.2,0.3-1.6,0.7c-0.4,0.4-0.6,1-0.5,1.6l2.8,19.8c0,0.2,0.1-0.1,0.2,0.9H38.4V15h73
				v86.5c0-0.1-0.5-0.1-0.7-0.2L90.4,100.1z"/>
			<path fill="#999999" d="M94,120.6c-0.1,0.1-0.2,0.2-0.2,0.2l-2.6-18.1l18.8,1.2c0,0.1-0.1,0.2-0.2,0.2L94,120.6z"/>
			<path fill="#FFFFFF" d="M96,122.7c-0.7,0.8-1.7,1.4-2.6,1.4c-1,0-1.7-0.1-2.1-1.1H96L96,122.7z"/>
			<path fill="#FFFFFF" d="M111.7,106l-0.3,0.3v-4.7c0,0.2,1,0.6,1.2,1.1C113,103.7,112.6,105,111.7,106z"/>
			<path fill="#FFFFFF" d="M111.4,106.2v-4.7c0-0.1-0.5-0.1-0.7-0.2l-20.3-1.3c-0.6,0-1.2,0.3-1.6,0.7c-0.4,0.4-0.6,1.1-0.5,1.6
				l2.8,19.7c0,0.2,0.1-0.1,0.2,0.9H96L111.4,106.2z M110.7,105.1L95,121.5c-1,1-2.3,1.1-2.5,0.1l-2.8-19.4
				c-0.1-0.4,0.3-0.8,0.8-0.8l20.2,1.3C111.6,102.7,111.7,104,110.7,105.1z"/>
			<path fill="#FFFFFF" d="M110.6,102.7l-20.2-1.3c-0.5,0-0.8,0.4-0.8,0.8l2.8,19.4c0.1,1,1.5,0.9,2.5-0.1l15.7-16.5
				C111.7,104,111.6,102.7,110.6,102.7z M109.9,103.9c0,0.1-0.1,0.2-0.2,0.2L94,120.6c-0.1,0.1-0.2,0.2-0.2,0.2l-2.6-18.1
				L109.9,103.9z"/>
		</g>
		<rect x="47.4" y="24.4" fill="#FFFFFF" width="47" height="2.9"/>
		<rect x="47.4" y="37.2" fill="#FFFFFF" width="45" height="2.9"/>
		<rect x="47.4" y="49.9" fill="#FFFFFF" width="37.8" height="2.9"/>
		<rect x="47.4" y="62.7" fill="#FFFFFF" width="53.3" height="2.9"/>
		<rect x="47.4" y="75.5" fill="#FFFFFF" width="44.1" height="2.9"/>
		<rect x="47.4" y="101" fill="#FFFFFF" width="32.1" height="2.9"/>
		<rect x="47.4" y="88.2" fill="#FFFFFF" width="45.3" height="2.9"/>
	</g>
</g>
<g>
	<polygon fill="#999999" points="580,86 590.8,117 615.9,117 627.2,86 	"/>
	<circle fill="#999999" cx="603.6" cy="55.1" r="40.1"/>
	<rect x="591.2" y="120.1" fill="#999999" width="24.6" height="3.2"/>
	<rect x="592.5" y="125.8" fill="#999999" width="22" height="3.2"/>
	<rect x="593.8" y="131.9" fill="#999999" width="19.5" height="3.2"/>
</g>
<g>
	<path fill="#999999" d="M288,36.2v84.1h-6.7V36.2c0-1.1,0.9-2,2-2h2.7C287.1,34.2,288,35.1,288,36.2z"/>
	<path fill="#999999" d="M359.2,132H277c-1.1,0-2-0.9-2-2v-2.7c0-1.1,0.9-2,2-2h82.1c1.1,0,2,0.9,2,2v2.7
		C361.2,131.1,360.3,132,359.2,132z"/>
	<path fill="#999999" d="M311,21.4v98.4h-6.7V21.4c0-1.1,0.9-2,2-2h2.7C310.1,19.4,311,20.3,311,21.4z"/>
	<path fill="#999999" d="M357,49.6v71.1h-6.7V49.6c0-1.1,0.9-2,2-2h2.7C356.1,47.6,357,48.5,357,49.6z"/>
	<path fill="#999999" d="M334,20.1v101.1h-6.7V20.1c0-1.1,0.9-2,2-2h2.7C333.1,18.1,334,19,334,20.1z"/>
</g>
<text transform="matrix(1 0 0 1 29.7643 178.9081)"><tspan x="0" y="0" font-family="'Montserrat-Hairline'" font-size="16">Easy Data</tspan><tspan x="-11.8" y="30" font-family="'Montserrat-Hairline'" font-size="16">Organization</tspan></text>
<text transform="matrix(1 0 0 1 556.6248 178.9082)"><tspan x="0" y="0" font-family="'Montserrat-Hairline'" font-size="16">Smart Data</tspan><tspan x="-8.4" y="30" font-family="'Montserrat-Hairline'" font-size="16">Management</tspan></text>
<text transform="matrix(1 0 0 1 246.3788 178.9082)"><tspan x="0" y="0" font-family="'Montserrat-Hairline'" font-size="16">Efficient Reporting</tspan><tspan x="21.2" y="30" font-family="'Montserrat-Hairline'" font-size="16">and Statistics</tspan></text>
<text transform="matrix(1 0 0 1 844.4452 178.9082)"><tspan x="0" y="0" font-family="'Montserrat-Hairline'" font-size="16">Easy Data Sharing</tspan><tspan x="11.7" y="30" font-family="'Montserrat-Hairline'" font-size="16">Between Users</tspan></text>
<g>
	<g>
		<g>
			<path fill="#999999" d="M871.2,115.7c-0.5,0-1,0.2-1.3,0.6c-0.3,0.4-0.5,0.9-0.4,1.3l2.3,16.6c0,0.2,0.1-0.2,0.1,0.8h-42.6V44h59
				v72.9c0-0.1-0.4-0.1-0.6-0.1L871.2,115.7z"/>
			<path fill="#999999" d="M874.1,132.8c-0.1,0.1-0.1,0.1-0.2,0.2l-2.1-15.1l15.2,1c0,0.1-0.1,0.1-0.2,0.2L874.1,132.8z"/>
			<path fill="#FFFFFF" d="M875.8,134.7c-0.6,0.7-1.4,1.2-2.1,1.2c-0.8,0-1.4-0.9-1.7-0.9h3.8L875.8,134.7z"/>
			<path fill="#FFFFFF" d="M888.6,120.6l-0.2,0.2v-3.9c2,0.2,0.7,0.5,0.9,1C889.7,118.7,889.3,119.7,888.6,120.6z"/>
			<path fill="#FFFFFF" d="M888.4,120.8v-3.9c0-0.1-0.4-0.1-0.6-0.1l-16.5-1.1c-0.5,0-1,0.2-1.3,0.6c-0.3,0.4-0.5,0.9-0.4,1.4
				l2.3,16.5c0,0.2,0.1-0.2,0.1,0.8h3.8L888.4,120.8z M887.7,119.8L875,133.6c-0.8,0.9-1.9,0.9-2,0.1l-2.3-16.2
				c-0.1-0.4,0.2-0.7,0.6-0.7l16.3,1.1C888.4,117.9,888.5,119,887.7,119.8z"/>
			<path fill="#FFFFFF" d="M887.6,117.8l-16.3-1.1c-0.4,0-0.7,0.3-0.6,0.7l2.3,16.2c0.1,0.8,1.2,0.8,2-0.1l12.7-13.7
				C888.5,119,888.4,117.9,887.6,117.8z M887,118.9c0,0.1-0.1,0.1-0.2,0.2l-12.7,13.7c-0.1,0.1-0.1,0.1-0.2,0.2l-2.1-15.1L887,118.9
				z"/>
		</g>
		<rect x="836.4" y="52.9" fill="#FFFFFF" width="38.1" height="2.4"/>
		<rect x="836.4" y="63.6" fill="#FFFFFF" width="36.4" height="2.4"/>
		<rect x="836.4" y="74.2" fill="#FFFFFF" width="30.6" height="2.4"/>
		<rect x="836.4" y="84.9" fill="#FFFFFF" width="43.2" height="2.4"/>
		<rect x="836.4" y="95.5" fill="#FFFFFF" width="35.7" height="2.4"/>
		<rect x="836.4" y="116.8" fill="#FFFFFF" width="26" height="2.4"/>
		<rect x="836.4" y="106.2" fill="#FFFFFF" width="36.7" height="2.4"/>
	</g>
	<g>
		<g>
			<path fill="#999999" d="M952.3,86.2c-0.5,0-1,0.2-1.3,0.6c-0.3,0.4-0.5,0.9-0.4,1.3l2.3,16.3c0,0.2,0.1,0.6,0.1,0.6h-41.6V15h57
				v72.4c0-0.1,0.1-0.1-0.1-0.1L952.3,86.2z"/>
			<path fill="#999999" d="M955.2,103.4c-0.1,0.1-0.1,0.1-0.2,0.2l-2.1-15.1l15.2,1c0,0.1-0.1,0.1-0.2,0.2L955.2,103.4z"/>
			<path fill="#FFFFFF" d="M956.8,105c-0.6,0.7-1.4,1.1-2.1,1.1c-0.8,0-1.4-1-1.7-1L956.8,105L956.8,105z"/>
			<path fill="#FFFFFF" d="M969.1,91.1l-0.7,0.2v-3.9c2,0.2,1,0.5,1.2,1C969.9,89.2,969.8,90.3,969.1,91.1z"/>
			<path fill="#FFFFFF" d="M968.4,91.4v-3.9c0-0.1,0.1-0.1-0.1-0.1L952,86.2c-0.5,0-0.8,0.2-1.2,0.6c-0.3,0.4-0.4,0.9-0.3,1.4
				l2.3,16.3c0,0.2,0.1,0.6,0.2,0.6h3.8L968.4,91.4z M968.7,90.4L956,104.1c-0.8,0.9-1.9,0.9-2,0.1L951.7,88
				c-0.1-0.4,0.2-0.7,0.6-0.7l16.3,1.1C969.5,88.4,969.5,89.5,968.7,90.4z"/>
			<path fill="#FFFFFF" d="M968.6,88.4l-16.3-1.1c-0.4,0-0.7,0.3-0.6,0.7l2.3,16.2c0.1,0.8,1.2,0.8,2-0.1l12.7-13.7
				C969.5,89.5,969.5,88.4,968.6,88.4z M968.1,89.4c0,0.1-0.1,0.1-0.2,0.2l-12.7,13.7c-0.1,0.1-0.1,0.1-0.2,0.2l-2.1-15.1
				L968.1,89.4z"/>
		</g>
		<rect x="917.4" y="23.5" fill="#FFFFFF" width="38.1" height="2.4"/>
		<rect x="917.4" y="34.1" fill="#FFFFFF" width="36.4" height="2.4"/>
		<rect x="917.4" y="44.8" fill="#FFFFFF" width="30.6" height="2.4"/>
		<rect x="917.4" y="55.4" fill="#FFFFFF" width="43.2" height="2.4"/>
		<rect x="917.4" y="66.1" fill="#FFFFFF" width="35.7" height="2.4"/>
		<rect x="917.4" y="87.4" fill="#FFFFFF" width="26" height="2.4"/>
		<rect x="917.4" y="76.7" fill="#FFFFFF" width="36.7" height="2.4"/>
	</g>
	<g>
		<g>
			<path fill="none" stroke="#999999" stroke-width="2" stroke-miterlimit="10" d="M864.1,38.9c0,0,5.9-18.5,29.3-20.1"/>
			<g>
				<polygon fill="#999999" points="903.2,19.1 889.2,24.6 892.6,18.9 889.4,13.2 				"/>
			</g>
		</g>
	</g>
	<g>
		<g>
			<path fill="none" stroke="#999999" stroke-width="2" stroke-miterlimit="10" d="M932.9,109.3c0,0-5.9,18.5-29.3,20.1"/>
			<g>
				<polygon fill="#999999" points="893.7,129.1 907.8,123.6 904.3,129.2 907.6,135 				"/>
			</g>
		</g>
	</g>
</g>
</svg>
