<?xml version="1.0" encoding="utf-8"?>
<!-- Generator: Adobe Illustrator 18.0.0, SVG Export Plug-In . SVG Version: 6.00 Build 0)  -->
<!DOCTYPE svg PUBLIC "-//W3C//DTD SVG 1.1//EN" "http://www.w3.org/Graphics/SVG/1.1/DTD/svg11.dtd">
<svg version="1.1" id="Layer_1" xmlns="http://www.w3.org/2000/svg" xmlns:xlink="http://www.w3.org/1999/xlink" x="0px" y="0px"
	 viewBox="0 0 391 215.2" enable-background="new 0 0 391 215.2" xml:space="preserve">
<g>
	<g>
		<g>
			<path fill="#999999" d="M76.8-31c-0.6,0-1.2,0.3-1.6,0.7c-0.4,0.4-0.6,1-0.5,1.6l2.8,19.3c0,0.2,0.1-0.6,0.2,0.4H25.4v-108h72
				v87.4c0-0.1-0.3-0.1-0.5-0.2L76.8-31z"/>
			<path fill="#999999" d="M80.4-10.5c-0.1,0.1-0.2,0.2-0.2,0.2l-2.6-18.1l18.8,1.2c0,0.1-0.1,0.2-0.2,0.2L80.4-10.5z"/>
			<path fill="#FFFFFF" d="M82.3-8.8c-0.7,0.8-1.7,1.2-2.6,1.2c-1,0-1.7-0.4-2.1-1.4h4.7L82.3-8.8z"/>
			<path fill="#FFFFFF" d="M97.9-25.2l-0.5,0.3v-4.7c1,0.2,1.1,0.6,1.3,1.1C99.1-27.5,98.8-26.2,97.9-25.2z"/>
			<path fill="#FFFFFF" d="M97.4-24.9v-4.7c0-0.1-0.3-0.1-0.5-0.2L76.7-31c-0.6,0-1.1,0.3-1.5,0.7c-0.4,0.4-0.5,1.1-0.5,1.6
				l2.9,19.3c0,0.2,0.1-0.6,0.2,0.4h4.7L97.4-24.9z M97.1-26.1L81.4-9.6c-1,1-2.3,1.1-2.5,0.1l-2.8-19.4c-0.1-0.4,0.3-0.8,0.8-0.8
				L97-28.4C98-28.4,98.1-27.1,97.1-26.1z"/>
			<path fill="#FFFFFF" d="M97-28.4l-20.2-1.3c-0.5,0-0.8,0.4-0.8,0.8l2.8,19.4c0.1,1,1.5,0.9,2.5-0.1l15.7-16.5
				C98.1-27.1,98-28.4,97-28.4z M96.3-27.2c0,0.1-0.1,0.2-0.2,0.2L80.4-10.5c-0.1,0.1-0.2,0.2-0.2,0.2l-2.6-18.1L96.3-27.2z"/>
		</g>
		<rect x="33.7" y="-106.7" fill="#FFFFFF" width="47" height="2.9"/>
		<rect x="33.7" y="-94" fill="#FFFFFF" width="45" height="2.9"/>
		<rect x="33.7" y="-81.2" fill="#FFFFFF" width="37.8" height="2.9"/>
		<rect x="33.7" y="-68.4" fill="#FFFFFF" width="53.3" height="2.9"/>
		<rect x="33.7" y="-55.7" fill="#FFFFFF" width="44.1" height="2.9"/>
		<rect x="33.7" y="-30.1" fill="#FFFFFF" width="32.1" height="2.9"/>
		<rect x="33.7" y="-42.9" fill="#FFFFFF" width="45.3" height="2.9"/>
	</g>
	<g>
		<g>
			<path fill="#999999" d="M94.4-41.9c-0.6,0-1.2,0.3-1.6,0.7c-0.4,0.4-0.6,1-0.5,1.6l2.8,19.8c0,0.2,0.1-0.1,0.2,0.9H42.4v-108h73
				v86.5c0-0.1-0.5-0.1-0.7-0.2L94.4-41.9z"/>
			<path fill="#999999" d="M98-21.4c-0.1,0.1-0.2,0.2-0.2,0.2l-2.6-18.1l18.8,1.2c0,0.1-0.1,0.2-0.2,0.2L98-21.4z"/>
			<path fill="#FFFFFF" d="M100-19.3c-0.7,0.8-1.7,1.4-2.6,1.4c-1,0-1.7-0.1-2.1-1.1h4.7L100-19.3z"/>
			<path fill="#FFFFFF" d="M115.7-36l-0.3,0.3v-4.7c0,0.2,1,0.6,1.2,1.1C117-38.3,116.6-37,115.7-36z"/>
			<path fill="#FFFFFF" d="M115.4-35.8v-4.7c0-0.1-0.5-0.1-0.7-0.2l-20.3-1.3c-0.6,0-1.2,0.3-1.6,0.7c-0.4,0.4-0.6,1.1-0.5,1.6
				l2.8,19.7c0,0.2,0.1-0.1,0.2,0.9h4.7L115.4-35.8z M114.7-36.9L99-20.5c-1,1-2.3,1.1-2.5,0.1l-2.8-19.4c-0.1-0.4,0.3-0.8,0.8-0.8
				l20.2,1.3C115.6-39.3,115.7-38,114.7-36.9z"/>
			<path fill="#FFFFFF" d="M114.6-39.3l-20.2-1.3c-0.5,0-0.8,0.4-0.8,0.8l2.8,19.4c0.1,1,1.5,0.9,2.5-0.1l15.7-16.5
				C115.7-38,115.6-39.3,114.6-39.3z M113.9-38.1c0,0.1-0.1,0.2-0.2,0.2L98-21.4c-0.1,0.1-0.2,0.2-0.2,0.2l-2.6-18.1L113.9-38.1z"/>
		</g>
		<rect x="51.4" y="-117.6" fill="#FFFFFF" width="47" height="2.9"/>
		<rect x="51.4" y="-104.8" fill="#FFFFFF" width="45" height="2.9"/>
		<rect x="51.4" y="-92.1" fill="#FFFFFF" width="37.8" height="2.9"/>
		<rect x="51.4" y="-79.3" fill="#FFFFFF" width="53.3" height="2.9"/>
		<rect x="51.4" y="-66.5" fill="#FFFFFF" width="44.1" height="2.9"/>
		<rect x="51.4" y="-41" fill="#FFFFFF" width="32.1" height="2.9"/>
		<rect x="51.4" y="-53.8" fill="#FFFFFF" width="45.3" height="2.9"/>
	</g>
</g>
<g>
	<polygon fill="#999999" points="44,85 54.8,116 79.9,116 91.2,85 	"/>
	<circle fill="#999999" cx="67.6" cy="54.1" r="40.1"/>
	<rect x="55.2" y="119.1" fill="#999999" width="24.6" height="3.2"/>
	<rect x="56.5" y="124.8" fill="#999999" width="22" height="3.2"/>
	<rect x="57.8" y="130.9" fill="#999999" width="19.5" height="3.2"/>
</g>
<g>
	<path fill="#999999" d="M274.2-115.3v84.1h-6.7v-84.1c0-1.1,0.9-2,2-2h2.7C273.3-117.3,274.2-116.4,274.2-115.3z"/>
	<path fill="#999999" d="M345.3-19.5h-82.1c-1.1,0-2-0.9-2-2v-2.7c0-1.1,0.9-2,2-2h82.1c1.1,0,2,0.9,2,2v2.7
		C347.3-20.4,346.4-19.5,345.3-19.5z"/>
	<path fill="#999999" d="M297.1-130.1v98.4h-6.7v-98.4c0-1.1,0.9-2,2-2h2.7C296.3-132.1,297.1-131.2,297.1-130.1z"/>
	<path fill="#999999" d="M343.1-101.9v71.1h-6.7v-71.1c0-1.1,0.9-2,2-2h2.7C342.2-103.9,343.1-103,343.1-101.9z"/>
	<path fill="#999999" d="M320.1-131.4v101.1h-6.7v-101.1c0-1.1,0.9-2,2-2h2.7C319.2-133.4,320.1-132.5,320.1-131.4z"/>
</g>
<text transform="matrix(1 0 0 1 23.2687 178.9081)"><tspan x="0" y="0" font-family="'Montserrat-Hairline'" font-size="16">Smart Data</tspan><tspan x="-8.4" y="30" font-family="'Montserrat-Hairline'" font-size="16">Management</tspan></text>
<text transform="matrix(1 0 0 1 556.6248 178.9082)"><tspan x="0" y="0" font-family="'Montserrat-Hairline'" font-size="16">Smart Data</tspan><tspan x="-8.4" y="30" font-family="'Montserrat-Hairline'" font-size="16">Management</tspan></text>
<text transform="matrix(1 0 0 1 248.9628 178.9082)"><tspan x="0" y="0" font-family="'Montserrat-Hairline'" font-size="16">Easy Data Sharing</tspan><tspan x="11.7" y="30" font-family="'Montserrat-Hairline'" font-size="16">Between Users</tspan></text>
<text transform="matrix(1 0 0 1 844.4452 178.9082)"><tspan x="0" y="0" font-family="'Montserrat-Hairline'" font-size="16">Easy Data Sharing</tspan><tspan x="11.7" y="30" font-family="'Montserrat-Hairline'" font-size="16">Between Users</tspan></text>
<g>
	<g>
		<g>
			<path fill="#999999" d="M276.2,117.7c-0.5,0-1,0.2-1.3,0.6c-0.3,0.4-0.5,0.9-0.4,1.3l2.3,16.6c0,0.2,0.1-0.2,0.1,0.8h-42.6V46h59
				v72.9c0-0.1-0.4-0.1-0.6-0.1L276.2,117.7z"/>
			<path fill="#999999" d="M279.1,134.8c-0.1,0.1-0.1,0.1-0.2,0.2l-2.1-15.1l15.2,1c0,0.1-0.1,0.1-0.2,0.2L279.1,134.8z"/>
			<path fill="#FFFFFF" d="M280.8,136.7c-0.6,0.7-1.4,1.2-2.1,1.2c-0.8,0-1.4-0.9-1.7-0.9h3.8L280.8,136.7z"/>
			<path fill="#FFFFFF" d="M293.6,122.6l-0.2,0.2v-3.9c2,0.2,0.7,0.5,0.9,1C294.7,120.7,294.3,121.7,293.6,122.6z"/>
			<path fill="#FFFFFF" d="M293.4,122.8v-3.9c0-0.1-0.4-0.1-0.6-0.1l-16.5-1.1c-0.5,0-1,0.2-1.3,0.6c-0.3,0.4-0.5,0.9-0.4,1.4
				l2.3,16.5c0,0.2,0.1-0.2,0.1,0.8h3.8L293.4,122.8z M292.7,121.8L280,135.6c-0.8,0.9-1.9,0.9-2,0.1l-2.3-16.2
				c-0.1-0.4,0.2-0.7,0.6-0.7l16.3,1.1C293.4,119.9,293.5,121,292.7,121.8z"/>
			<path fill="#FFFFFF" d="M292.6,119.8l-16.3-1.1c-0.4,0-0.7,0.3-0.6,0.7l2.3,16.2c0.1,0.8,1.2,0.8,2-0.1l12.7-13.7
				C293.5,121,293.4,119.9,292.6,119.8z M292,120.9c0,0.1-0.1,0.1-0.2,0.2l-12.7,13.7c-0.1,0.1-0.1,0.1-0.2,0.2l-2.1-15.1L292,120.9
				z"/>
		</g>
		<rect x="241.4" y="54.9" fill="#FFFFFF" width="38.1" height="2.4"/>
		<rect x="241.4" y="65.6" fill="#FFFFFF" width="36.4" height="2.4"/>
		<rect x="241.4" y="76.2" fill="#FFFFFF" width="30.6" height="2.4"/>
		<rect x="241.4" y="86.9" fill="#FFFFFF" width="43.2" height="2.4"/>
		<rect x="241.4" y="97.5" fill="#FFFFFF" width="35.7" height="2.4"/>
		<rect x="241.4" y="118.8" fill="#FFFFFF" width="26" height="2.4"/>
		<rect x="241.4" y="108.2" fill="#FFFFFF" width="36.7" height="2.4"/>
	</g>
	<g>
		<g>
			<path fill="#999999" d="M357.3,88.2c-0.5,0-1,0.2-1.3,0.6c-0.3,0.4-0.5,0.9-0.4,1.3l2.3,16.3c0,0.2,0.1,0.6,0.1,0.6h-41.6V17h57
				v72.4c0-0.1,0.1-0.1-0.1-0.1L357.3,88.2z"/>
			<path fill="#999999" d="M360.2,105.4c-0.1,0.1-0.1,0.1-0.2,0.2l-2.1-15.1l15.2,1c0,0.1-0.1,0.1-0.2,0.2L360.2,105.4z"/>
			<path fill="#FFFFFF" d="M361.8,107c-0.6,0.7-1.4,1.1-2.1,1.1c-0.8,0-1.4-1-1.7-1L361.8,107L361.8,107z"/>
			<path fill="#FFFFFF" d="M374.1,93.1l-0.7,0.2v-3.9c2,0.2,1,0.5,1.2,1C374.9,91.2,374.8,92.3,374.1,93.1z"/>
			<path fill="#FFFFFF" d="M373.4,93.4v-3.9c0-0.1,0.1-0.1-0.1-0.1L357,88.2c-0.5,0-0.8,0.2-1.2,0.6c-0.3,0.4-0.4,0.9-0.3,1.4
				l2.3,16.3c0,0.2,0.1,0.6,0.2,0.6h3.8L373.4,93.4z M373.7,92.4L361,106.1c-0.8,0.9-1.9,0.9-2,0.1L356.7,90
				c-0.1-0.4,0.2-0.7,0.6-0.7l16.3,1.1C374.5,90.4,374.5,91.5,373.7,92.4z"/>
			<path fill="#FFFFFF" d="M373.6,90.4l-16.3-1.1c-0.4,0-0.7,0.3-0.6,0.7l2.3,16.2c0.1,0.8,1.2,0.8,2-0.1l12.7-13.7
				C374.5,91.5,374.5,90.4,373.6,90.4z M373.1,91.4c0,0.1-0.1,0.1-0.2,0.2l-12.7,13.7c-0.1,0.1-0.1,0.1-0.2,0.2l-2.1-15.1
				L373.1,91.4z"/>
		</g>
		<rect x="322.4" y="25.5" fill="#FFFFFF" width="38.1" height="2.4"/>
		<rect x="322.4" y="36.1" fill="#FFFFFF" width="36.4" height="2.4"/>
		<rect x="322.4" y="46.8" fill="#FFFFFF" width="30.6" height="2.4"/>
		<rect x="322.4" y="57.4" fill="#FFFFFF" width="43.2" height="2.4"/>
		<rect x="322.4" y="68.1" fill="#FFFFFF" width="35.7" height="2.4"/>
		<rect x="322.4" y="89.4" fill="#FFFFFF" width="26" height="2.4"/>
		<rect x="322.4" y="78.7" fill="#FFFFFF" width="36.7" height="2.4"/>
	</g>
	<g>
		<g>
			<path fill="none" stroke="#999999" stroke-width="2" stroke-miterlimit="10" d="M269.1,40.9c0,0,5.9-18.5,29.3-20.1"/>
			<g>
				<polygon fill="#999999" points="308.2,21.1 294.2,26.6 297.6,20.9 294.4,15.2 				"/>
			</g>
		</g>
	</g>
	<g>
		<g>
			<path fill="none" stroke="#999999" stroke-width="2" stroke-miterlimit="10" d="M337.9,111.3c0,0-5.9,18.5-29.3,20.1"/>
			<g>
				<polygon fill="#999999" points="298.7,131.1 312.8,125.6 309.3,131.2 312.6,137 				"/>
			</g>
		</g>
	</g>
</g>
</svg>
