<?xml version="1.0" encoding="utf-8"?>
<!-- Generator: Adobe Illustrator 18.0.0, SVG Export Plug-In . SVG Version: 6.00 Build 0)  -->
<!DOCTYPE svg PUBLIC "-//W3C//DTD SVG 1.1//EN" "http://www.w3.org/Graphics/SVG/1.1/DTD/svg11.dtd">
<svg version="1.1" id="Layer_1" xmlns="http://www.w3.org/2000/svg" xmlns:xlink="http://www.w3.org/1999/xlink" x="0px" y="0px"
	 viewBox="0 0 229.2 328.7" enable-background="new 0 0 229.2 328.7" xml:space="preserve">
<g>
	<path fill="#EC4C3B" d="M97.5,220.4c-1.3-1-7.8-7.7-9.4-9.3c-1.6-1.7-3.3-3.7-5-6.3c-7.7-11.5-15.1-32.5-11.2-69
		c2.4-18.2,19-64.4,52.1-92.4c9.4-8,55.1-49.8,105.1-25.8c-26.3-13.8-57.9-27.9-112.1-6.7c-0.4,0.2-0.9,0.4-1.3,0.5
		c-4.6,1.5-36.2,13-58.3,50.1c-23.8,40.1-6.7,103.8,5.6,119.9c0,0,5.2,8.8,11.1,16.2c5.9,7.4,16,16.6,19.3,20"/>
	<path fill="#EC4C3B" d="M0,309.5c1.4,0.8,10,4.4,12.1,5.2c2.2,0.9,4.7,1.7,7.6,2.3c13.6,2.9,35.7,2,68.3-15.2
		c16-9,52.9-41.5,66.5-82.6c4-11.7,25.9-69.7-14.8-107.2c22.6,19.3,47.3,43.4,47.7,101.7c0,0.5,0,0.9,0,1.4
		c0.3,4.8,1.4,38.5-25,72.7c-28.5,37-94,44.6-113.4,39.1c0,0-10.1-1.6-19.2-4.3S8.5,314,4.1,312.2"/>
</g>
</svg>
